<svg width="166" height="244" viewBox="0 0 166 244" fill="none" xmlns="http://www.w3.org/2000/svg">
<path fill-rule="evenodd" clip-rule="evenodd" d="M159.566 210.932C158.715 206.121 157.934 201.297 157.224 196.462C156.888 194.167 156.559 191.87 156.264 189.568C156.057 187.956 155.742 186.113 156.838 184.919C158.381 183.238 159.783 181.8 159.972 179.392C160.149 177.127 159.384 174.658 158.905 172.459C157.901 167.848 156.651 163.295 155.27 158.784C153.867 154.201 152.329 149.662 150.768 145.131C149.309 140.894 147.907 136.62 146.006 132.555C142.4 124.842 136.298 119.13 128.758 115.316C126.882 114.367 123.057 110.981 121.098 110.223C119.297 109.526 119.303 111.561 117.53 110.795C116.113 110.182 114.793 109.364 114 107.996C113.138 106.509 110.978 104.43 110.649 102.7C109.952 99.033 110.707 95.9117 108.091 93.1516C105.768 90.7006 102.646 89.0215 99.4157 88.1201C92.3095 86.1373 82.8325 87.5235 78.545 94.1293C76.4972 97.284 75.7816 101.097 73.0185 103.672C70.6056 105.92 71.1456 107.457 68.0205 108.615C67.8435 108.681 63.0461 107.651 62.8691 107.717C59.4503 106.985 56.1828 109.034 53.0463 110.223C48.3703 111.995 43.9185 114.302 39.736 117.043C31.3024 122.571 24.0792 129.749 18.1242 137.872C12.12 146.062 7.4613 155.241 4.14419 164.835C3.33862 167.165 2.61503 169.524 1.97679 171.906C1.61954 173.239 1.23778 174.621 1.67278 175.986C2.02855 177.102 2.81996 177.934 3.74933 178.604C5.00912 179.512 7.53609 180.102 7.48686 181.928C7.44926 183.317 6.97834 184.779 6.74848 186.151C6.47489 187.785 6.2501 189.429 6.02531 191.07C5.00278 198.541 4.20693 206.055 3.85496 213.589C3.50848 221.008 3.22095 228.579 3.73538 235.995C3.7694 236.484 3.91517 236.933 4.15031 237.313C3.93081 237.397 3.9139 237.806 4.18707 237.864C4.37848 237.905 4.56947 237.945 4.76088 237.986C5.15848 238.287 5.65433 238.471 6.22496 238.489C6.61179 238.501 6.99841 238.519 7.38482 238.539C11.4625 239.391 15.5395 240.197 19.6705 240.807C24.6919 241.548 29.7281 242.153 34.7799 242.644C45.1605 243.654 55.4594 243.319 65.8538 242.775C76.2321 242.231 86.6043 242.104 96.9933 242.374C107.392 242.645 117.786 243.098 128.186 243.283C139.806 243.489 151.408 243.172 162.994 242.248C164.582 242.121 165.565 240.857 165.252 239.279C163.374 229.822 161.247 220.429 159.566 210.932Z" fill="white"/>
<path fill-rule="evenodd" clip-rule="evenodd" d="M59.6272 107.485C60.7017 107.438 61.7973 107.612 62.8693 107.718C62.9627 107.727 62.9982 107.871 62.8929 107.893C60.9745 108.294 59.077 108.842 57.1928 109.4L56.3861 109.638C54.2614 110.267 52.199 110.916 50.1421 111.754C46.0427 113.426 42.1492 115.682 38.5659 118.274C24.7676 128.254 14.781 143.364 8.47886 159.008C6.76738 163.257 5.31724 167.611 4.14259 172.039C3.85696 173.116 3.58823 174.197 3.33344 175.282C3.25865 175.6 2.93266 176.415 3.1114 176.74C3.26942 177.028 3.88379 177.206 4.16921 177.355L5.13283 177.855C7.01245 178.824 10.1434 180.417 10.4574 180.573L10.9471 180.814C18.9564 184.742 27.5142 188.073 36.5272 188.303L36.5977 187.533C36.9996 183.276 37.5269 178.997 38.6779 174.871C38.7398 174.649 39.0218 174.724 39.0476 174.921C39.6888 179.806 39.4839 184.728 39.2601 189.635C38.864 198.326 38.3379 207.013 37.8704 215.701C37.6363 220.047 37.3338 224.39 37.0606 228.733C36.787 233.086 36.6985 237.543 36.0738 241.859C35.9346 242.821 34.8081 243.344 33.955 243.243C33.011 243.13 32.2849 242.299 32.2805 241.345C32.2691 238.831 32.5849 236.286 32.7605 233.778C32.9272 231.395 33.1061 229.013 33.2895 226.631C33.9596 217.938 34.7306 209.255 35.4436 200.566C35.6963 197.484 35.9692 194.405 36.2502 191.326C26.7024 191.018 17.7825 187.48 9.27302 183.347C9.14985 186.144 8.85238 188.937 8.56442 191.723C7.76055 199.498 7.05175 207.269 6.52126 215.068C6.25337 219.007 6.05837 222.951 5.88851 226.895C5.80506 228.834 5.73703 230.773 5.68485 232.712C5.66738 233.359 5.65161 234.005 5.63765 234.652L5.60862 236.133C5.58487 237.071 5.4895 237.941 4.70013 238.624C3.89837 239.318 2.81541 239.355 2.02189 238.624C0.959635 237.645 1.14745 236.312 1.17893 234.998C1.20513 233.89 1.23661 232.781 1.27316 231.673C1.34647 229.457 1.44006 227.241 1.55393 225.026C1.95241 217.283 2.74858 209.571 3.78907 201.89L4.19524 198.925C4.95375 193.413 5.78649 187.775 7.4821 182.466C6.82189 182.137 6.16358 181.806 5.5078 181.474C4.34456 180.885 3.14182 180.332 2.01111 179.682C1.11407 179.166 0.34041 178.458 0.0906914 177.414C-0.187808 176.25 0.238059 174.978 0.52098 173.843L0.545551 173.743C0.822945 172.6 1.12168 171.462 1.43689 170.329C2.71506 165.735 4.29555 161.23 6.1452 156.835C9.84872 148.036 14.6291 139.677 20.4683 132.119C25.7244 125.315 31.9336 119.146 39.2109 114.518C42.7686 112.256 46.5601 110.398 50.5697 109.085C52.4439 108.471 54.483 107.937 56.4453 107.718C57.5037 107.599 58.5636 107.531 59.6272 107.485ZM78.6653 93.5424C79.9422 92.1708 82.4791 93.5902 81.866 95.4065C80.4238 99.6798 78.1274 103.578 74.5434 106.386C71.1746 109.026 67.1573 110.74 62.831 110.374C62.7976 110.371 62.7686 110.363 62.7431 110.35L63.1159 110.856C66.043 114.817 69.1309 118.724 72.8527 121.961C80.4357 128.557 90.7603 132.115 100.73 129.584C108.574 127.593 115.485 121.388 117.517 113.48C117.226 113.611 116.879 113.656 116.499 113.573C114.873 113.22 113.263 111.509 112.215 110.282C111.08 108.955 110.194 107.522 109.545 105.902C108.356 102.938 107.975 99.1212 109.598 96.2496C109.798 95.8956 110.26 96.0941 110.299 96.4396L110.361 96.979C110.674 99.6702 111.064 102.274 112.332 104.727C112.953 105.927 113.697 107.099 114.603 108.104C115.087 108.642 115.613 109.156 116.18 109.607C116.733 110.047 117.402 110.365 117.897 110.869L117.988 110.966L117.99 110.948C118.116 109.883 118.863 109.413 119.593 109.443C120.3 109.471 121.131 109.783 121.453 109.932L121.483 109.946C126.417 112.315 130.961 115.403 135.237 118.829C144.079 125.915 150.705 135.177 153.915 146.085C155.491 151.438 156.395 156.954 157.349 162.444L157.937 165.808C158.828 170.877 159.823 176.045 161.833 180.76C162.354 181.979 161.953 183.123 160.677 183.603C159.085 184.202 157.486 184.782 155.885 185.354C156.671 188.728 157.151 192.219 157.74 195.609C158.992 202.816 160.526 209.977 161.841 217.174C162.514 220.854 163.12 224.547 163.792 228.227C164.116 229.999 164.453 231.769 164.782 233.541C164.958 234.496 165.119 235.454 165.288 236.411L165.317 236.57C165.414 237.074 165.535 237.596 165.396 238.101C165.238 238.677 164.789 239.084 164.387 239.497C164.057 239.837 163.58 239.839 163.175 239.654L163.042 239.592C162.32 239.254 161.754 238.917 161.497 238.101C161.335 237.585 161.277 237.003 161.171 236.471C160.967 235.452 160.774 234.431 160.592 233.407C160.228 231.358 159.872 229.308 159.525 227.256L159.2 225.335C158.087 218.714 157.03 212.052 156.495 205.36C156.258 202.392 156.007 199.426 155.753 196.459L155.562 194.234C155.322 191.418 155.027 188.531 154.986 185.676L154.028 186.016L149.357 187.668C148.199 188.078 146.724 188.917 145.478 188.764C144.868 188.689 144.402 188.497 144.043 188.148C144.473 194.221 145.056 200.283 145.832 206.314C146.538 211.802 147.32 217.283 148.245 222.738C148.703 225.44 149.173 228.139 149.684 230.831C149.94 232.177 150.203 233.521 150.475 234.864C150.611 235.534 150.772 236.204 150.877 236.88C150.998 237.653 150.785 238.129 150.353 238.766C149.998 239.288 149.289 239.557 148.714 239.196C147.952 238.718 147.554 238.303 147.33 237.432C147.127 236.641 147.003 235.815 146.845 235.014C146.554 233.535 146.273 232.054 146.002 230.572C145.434 227.471 144.911 224.362 144.443 221.244C142.796 210.261 141.751 199.185 141.224 188.091C140.963 182.618 140.883 177.14 140.929 171.661C140.953 168.852 141.044 166.036 141.243 163.235C141.444 160.399 141.862 157.62 142.236 154.811C142.249 154.712 142.388 154.707 142.394 154.811C142.571 157.96 142.848 161.105 142.984 164.262C143.114 167.275 143.171 170.292 143.274 173.305C143.409 177.266 143.597 181.23 143.846 185.19C144.296 184.698 144.975 184.414 145.654 184.525C146.637 184.318 147.696 183.802 148.634 183.488L152.169 182.307C154.028 181.686 155.886 181.069 157.751 180.471C156.084 174.859 154.942 169.163 153.966 163.385L153.531 160.786C152.67 155.67 151.742 150.552 150.182 145.598C148.542 140.39 146.089 135.548 142.834 131.163C139.625 126.842 135.722 123.037 131.702 119.478C128.262 116.431 124.581 113.68 121.071 110.717C121.108 110.913 121.116 111.129 121.083 111.367C120.337 116.83 117.488 121.918 113.518 125.702C105.541 133.305 93.7343 134.882 83.5255 131.317C73.6502 127.869 64.9191 119.702 61.8344 109.596C61.7816 109.423 62.0131 109.354 62.1061 109.481C62.2772 109.716 62.4492 109.95 62.6214 110.185C62.6098 110.092 62.6581 109.99 62.7731 109.946C66.3722 108.555 69.9065 106.584 72.6044 103.795C73.9193 102.435 75.0669 100.895 75.9729 99.2335C76.4068 98.4377 76.7966 97.6137 77.1076 96.7621L77.1866 96.5418C77.5635 95.4752 77.8785 94.3875 78.6653 93.5424Z" fill="black"/>
<path fill-rule="evenodd" clip-rule="evenodd" d="M97.7274 5.27835C109.723 5.27835 124.748 18.9677 129.145 24.7931C132.842 29.6907 132.319 54.9219 132.319 69.8891C132.319 73.0194 130.905 78.9439 130.391 81.9381C128.509 92.9103 120.312 102.112 104.087 102.112C90.8757 102.112 80.709 97.9262 70.8775 87.2194C68.6346 84.7768 57.6807 93.5213 55.4405 90.3722C49.5891 90.3722 44.6963 35.6794 56.1848 19.2748C67.6732 2.87014 85.7315 5.27835 97.7274 5.27835Z" fill="white"/>
<path fill-rule="evenodd" clip-rule="evenodd" d="M61.6725 9.13131C68.6042 2.82251 77.8387 -0.212482 87.1556 0.0115497C91.981 0.127792 96.7894 1.04717 101.346 2.62173C103.626 3.41218 105.834 4.44357 107.944 5.61022C108.705 6.02967 109.406 6.52115 110.081 7.04311L110.249 7.17421H110.251C112.062 7.82517 113.678 8.99394 115.144 10.3614C118.083 10.1268 121.045 10.391 123.887 11.2977C127.842 12.5615 131.503 14.8758 134.074 18.1623C137.069 21.9884 138.065 26.6295 137.709 31.4204L137.644 32.2343C137.292 36.4665 136.663 41.9102 133.191 44.691C132.927 44.9024 132.635 45.063 132.333 45.1602C134.57 48.9941 136.406 53.2507 137.505 57.5496C141.699 73.9694 138.475 91.093 133.432 106.919C133.018 108.223 131.046 109.089 130.043 107.815C128.251 105.537 125.649 103.799 122.72 103.474C120.914 103.273 119.116 103.637 117.409 102.817C116.739 102.493 116.093 101.965 115.628 101.322C112.746 102.415 109.643 102.931 106.565 102.804C101.513 102.597 96.1134 100.847 92.638 97.0087C92.0803 96.3926 91.9389 95.7008 92.0674 95.0773C92.5032 94.9218 92.9507 94.806 93.4117 94.7335C97.8187 97.3318 102.677 99.0681 107.897 99.1771C110.914 99.2401 113.857 98.818 116.303 96.9336C116.832 96.5257 117.319 96.0741 117.769 95.5888C122.883 92.2977 126.489 86.7077 128.203 80.7199C129.8 75.136 129.604 69.3218 129.054 63.5942L128.764 60.5717C128.342 56.1357 127.95 51.6864 127.84 47.2314L127.873 47.2297C128.953 47.16 128.961 45.4686 127.873 45.5389C125.06 45.7211 122.267 45.2593 119.462 45.4605C119.438 44.1339 119.343 42.8132 118.953 41.5336C118.731 40.8026 117.458 40.6584 117.323 41.5336C117.143 42.7045 117.077 43.8688 117.057 45.045C112.859 44.9892 108.665 44.6358 104.466 44.781C103.692 43.9547 103.445 42.4894 103.083 41.47C103.03 41.32 102.977 41.172 102.923 41.022C102.604 42.4786 102.153 43.9033 101.559 45.298L100.529 45.3015C94.6869 45.3289 88.7255 45.5036 83.0203 46.7174C82.6237 46.4129 82.3877 45.8815 82.3239 45.399C81.9101 42.2593 81.3195 39.203 80.2727 36.2109L80.123 35.7887C80.1107 35.7537 80.0978 35.7165 80.0843 35.6773C79.313 36.9228 78.3927 38.0838 77.3889 39.1648C76.7974 39.802 76.1771 40.4114 75.5406 41.0034C74.9222 41.6902 74.2831 42.3668 73.6637 43.0558C73.688 43.1811 73.7091 43.3083 73.7262 43.4379C73.9157 44.8677 73.9354 46.3178 73.7966 47.753C73.5456 50.3478 72.8133 52.8481 71.637 55.1611L71.5998 55.3927C71.4211 56.4766 71.167 57.5969 70.5735 58.4131C71.3142 59.2433 71.8848 60.235 72.2156 61.3367C72.5101 62.3176 71.1536 63.1677 70.4501 62.365C69.8913 61.7273 69.2704 61.1996 68.5884 60.7786C68.5453 60.8371 68.4675 60.8658 68.3803 60.817C66.481 59.7624 63.2549 60.0815 61.3577 61.0749C58.9979 62.3092 58.0768 64.8433 58.3387 67.4112C58.5901 69.8649 59.6634 72.733 61.7444 73.9905C62.6993 74.5675 63.443 74.6161 64.457 74.3392C64.7813 74.2511 65.1833 73.9809 65.3558 73.8467L65.5256 73.7105C66.1904 73.1849 66.8096 72.825 67.5944 72.8112C68.397 72.5608 69.2037 72.9081 69.5107 73.7501L69.5296 73.8045C69.6732 74.2336 69.9352 74.7725 69.8782 75.4277C69.819 76.1294 69.4979 76.7676 69.0183 77.2812C68.9359 77.37 68.8472 77.4588 68.7563 77.5412C77.0169 86.4876 78.0775 100.428 73.8416 111.605C73.6577 112.095 73.4613 112.579 73.2563 113.059C72.5486 114.703 69.8232 114.194 69.4768 112.564C69.3732 112.076 69.2592 111.59 69.1345 111.108C68.9054 110.217 68.6429 109.335 68.347 108.466L68.2345 108.14C67.9831 107.422 67.7486 106.697 67.4951 105.978L67.4697 105.896C67.4602 105.864 67.4496 105.826 67.438 105.784L67.0092 106.72L65.7056 109.546C65.0957 110.865 63.1576 110.148 63.0855 108.877L63.0838 108.834C63.0775 108.599 63.069 108.367 63.0542 108.136C62.9613 106.41 62.6634 104.731 62.1901 103.089L62.0194 103.301C59.477 106.446 56.4932 109.393 52.4 110.119C51.3732 110.3 50.2113 109.227 50.9169 108.189C51.2085 107.76 51.4894 107.32 51.7556 106.874C51.5254 106.767 51.3077 106.655 51.107 106.541C49.5542 105.668 48.2613 104.425 47.1923 103.015C44.9254 100.027 44.1141 96.2647 43.9155 92.583C43.7042 88.692 44.0465 84.5897 45.1092 80.8361C45.5697 79.213 46.193 77.6553 46.9134 76.1442C46.8627 76.0089 46.8141 75.8736 46.7655 75.7384C45.988 73.5699 45.35 71.3528 44.8197 69.1104C43.7507 64.5833 43.1761 59.9125 43.1063 55.2606C42.9796 46.9271 44.4162 38.4604 47.4437 30.689C50.5704 22.6746 55.2732 14.954 61.6725 9.13131ZM57.7789 81.9922C57.2047 81.0878 55.7681 81.9028 56.3012 82.8135L56.3211 82.8461C57.2317 84.2811 57.6585 85.9128 58.1824 87.5127C58.5183 88.542 60.1514 88.1024 59.8113 87.0625L59.6987 86.7153C59.1773 85.0929 58.7017 83.4441 57.7789 81.9922ZM62.7796 64.7291L63.161 64.5444C64.3642 63.97 65.4185 63.5788 66.8401 64.0803C68.7437 64.7502 70.7824 66.8828 69.4958 68.9519C69.0225 69.7149 68.1817 70.0192 67.3155 69.8396C65.8552 69.5366 65.4784 68.2211 64.7373 67.1412L64.6098 66.9583C64.158 66.3049 63.5867 65.4016 62.8345 65.1455C62.6634 65.0863 62.5916 64.82 62.7796 64.7291ZM63.8525 20.7981L63.9754 20.6879C64.793 19.9651 63.593 18.7731 62.7796 19.4917C59.057 22.7824 57.7641 27.933 55.8331 32.3228C55.4 33.3098 56.8556 34.1721 57.293 33.1766C59.1349 28.9878 60.3576 23.977 63.8525 20.7981ZM108.587 19.3586C107.614 18.9201 106.763 20.3361 107.698 20.8024L107.733 20.819C111.02 22.3048 112.419 25.6695 113.758 28.7932C114.185 29.7908 115.641 28.9306 115.218 27.9415L114.977 27.381C113.579 24.1618 111.949 20.8806 108.587 19.3586ZM113.739 17.3254C112.708 16.9682 112.267 18.5998 113.289 18.957C116.076 19.9271 117.988 22.0195 119.6 24.4119C120.204 25.3081 121.668 24.4627 121.058 23.5581C119.186 20.7809 116.963 18.4497 113.739 17.3254Z" fill="black"/>
<path fill-rule="evenodd" clip-rule="evenodd" d="M108.081 87.2714C106.661 86.6918 105.394 85.725 104.468 84.49C104.145 84.0606 104.062 83.6073 104.13 83.1926C104.206 82.7263 104.481 82.3037 104.857 82.0202C105.235 81.7359 105.706 81.5957 106.163 81.6672C106.559 81.7293 106.954 81.9464 107.266 82.3967L107.331 82.4868C107.882 83.2322 108.6 83.8438 109.417 84.238C110.206 84.618 111.087 84.7953 111.999 84.6922C113.737 84.4958 114.934 83.5559 116.207 82.2794C116.365 82.1182 116.523 81.952 116.681 81.7831C116.782 81.63 116.921 81.5316 117.075 81.48C117.246 81.4227 117.44 81.4259 117.618 81.4879C117.789 81.5477 117.942 81.661 118.045 81.8118C118.143 81.9551 118.198 82.1322 118.18 82.3359C118.063 83.6588 117.372 84.8394 116.39 85.7664C115.299 86.796 113.854 87.5082 112.493 87.7581C110.993 88.0332 109.465 87.8361 108.081 87.2714ZM113.2 66.8636C114.795 67.8337 117.226 70.0958 115.51 72.5008C113.49 74.6214 110.581 72.19 109.148 71.0904C107.819 70.2381 106.325 72.43 107.559 73.4251C117.916 81.0961 122.119 67.1172 114.007 65.723C113.114 65.5693 112.782 66.5635 113.2 66.8636ZM94.6398 57.9402C94.8161 55.7514 98.1484 55.2544 98.4798 57.4203C98.7767 59.3605 98.4272 61.1428 97.5536 62.8896C96.7189 64.5584 94.6209 63.7798 94.4623 62.2602C94.2496 60.2233 94.5302 59.3018 94.6398 57.9402ZM120.005 56.9712C120.47 56.3625 121.141 55.947 121.944 56.1818C124.455 56.9158 123.715 60.4819 122.833 62.2177C122.354 63.1604 120.805 63.3994 120.106 62.5694C118.965 61.2159 118.418 58.513 119.869 57.1798C119.908 57.1109 119.952 57.0413 120.005 56.9712ZM97.5183 48.3627L97.9149 48.2932C99.1419 48.0809 100.668 47.8769 101.536 48.8638C101.996 49.3871 102.154 50.3597 101.536 50.8606C100.447 51.7419 99.2437 51.4004 97.9393 51.475C96.8644 51.5367 95.8313 51.7147 94.7959 52.0108C92.5243 52.6603 90.6734 53.8459 88.7333 55.1479C88.4788 55.3186 88.2189 54.9929 88.3404 54.7547C89.4603 52.5603 91.6307 50.7577 93.8046 49.6589C94.9649 49.0724 96.2346 48.5859 97.5183 48.3627ZM117.717 47.3797L118.02 47.4418C121.324 48.1326 125.616 49.5126 127.18 52.7588C127.24 53.2179 127.177 53.3162 127.126 53.3805L127.109 53.4019C127.067 53.4568 127.033 53.5324 126.834 53.5949C126.779 53.5818 126.723 53.5678 126.667 53.5531C125.95 53.3651 125.382 53.1061 124.833 52.8373L124.237 52.5438C123.546 52.2049 122.849 51.8783 122.111 51.6372C120.534 51.1228 118.913 50.7604 117.266 50.5669C116.909 50.525 116.565 50.4045 116.294 50.198C116.037 50.0019 115.84 49.7305 115.751 49.3698C115.634 48.9029 115.668 48.5494 115.918 48.1282C116.106 47.8119 116.376 47.5926 116.685 47.4667C117.001 47.3384 117.36 47.3081 117.717 47.3797Z" fill="black"/>
</svg>
