<svg width="166" height="243" viewBox="0 0 166 243" fill="none" xmlns="http://www.w3.org/2000/svg">
<path fill-rule="evenodd" clip-rule="evenodd" d="M78.213 95.1441C83.4281 91.1713 96.521 89.3848 102.087 93.21C107.585 97.0513 108.184 103.263 110.746 108.978C113.163 107.837 117.155 109.47 117.855 111.714C118.724 112.772 118.763 115.746 119.363 117.168C145.442 121.321 149.401 141.661 152.54 164.753C156.693 188.185 166.12 211.566 162.028 235.678C162.561 236.45 162.981 237.2 163.37 238.091C164.302 239.677 163.102 241.921 161.223 241.834C158.791 241.621 156.383 241.329 153.94 241.238C147.167 241.003 140.387 241.031 133.612 241.117L132.688 241.129C98.5399 241.554 64.3939 242.392 30.2446 242.614C29.0058 242.616 28.3992 241.505 28.5646 240.408C28.8978 238.201 29.2069 235.992 29.5295 233.783C21.4523 235.918 12.8656 236.455 4.8112 234.008C4.24775 233.434 6.12402 233.745 6.42169 233.658C-0.990841 228.59 1.22282 217.916 1.87944 210.227C5.9624 183.882 7.40176 154.733 23.1769 132.253C30.0015 123.078 40.0069 115.815 51.5039 114.18L51.8228 114.137C55.1845 113.688 58.9311 113.544 61.8704 111.714C65.1761 109.074 66.5848 104.196 70.0626 104.15C71.211 104.135 72.7732 105.589 74.4543 106.575C74.5798 104.405 75.7492 102.573 76.0073 100.89L76.0282 100.746C76.2976 98.7836 75.9287 97.0182 78.213 95.1441ZM134.26 165.449C126.931 160.355 107.998 162.915 107.565 163.2C106.611 163.828 106.2 163.883 105.684 164.699C105.174 164.766 104.665 164.836 104.156 164.909C103.136 165.242 103.892 166.498 105.071 166.05C104.362 169.109 106.448 171.285 107.279 174.309C107.549 175.291 107.289 177.057 107.279 178.06C107.36 179.34 108.774 180.851 108.538 182.134C107.7 186.697 103.154 191.148 105.071 195.573C106.34 198.072 110.159 199.347 112.698 200.196C117.959 202.216 127.124 200.12 130.181 195.573C131.811 193.148 133.7 187.03 134.672 185.132L134.887 182.122C135.419 174.638 135.891 166.583 134.26 165.449Z" fill="white"/>
<path fill-rule="evenodd" clip-rule="evenodd" d="M68.7855 103.709C69.2914 103.261 70.0402 103.824 69.7186 104.43C68.9961 105.791 68.255 107.08 67.2853 108.283C66.6973 109.013 66.0675 109.702 65.4293 110.385C67.0672 111.802 68.4719 113.562 69.7985 115.211C71.4948 117.321 73.0985 119.52 75.0026 121.45C76.8806 123.354 78.957 124.685 81.4677 125.572L81.9747 125.748C84.4969 126.634 87.1925 127.83 88.6142 130.219C88.8945 130.69 88.33 131.272 87.8555 130.978C85.3852 129.448 82.4826 129.14 79.7936 128.129C77.196 127.153 74.9317 125.649 72.931 123.731C70.9336 121.816 69.2566 119.637 67.5073 117.504C65.7774 115.395 63.9149 113.593 61.8688 111.809C58.7113 113.934 55.107 114.859 51.4422 115.767L51.0422 115.866C47.3729 116.775 43.7232 117.83 40.2808 119.413C37.2457 120.808 34.2605 122.474 31.7883 124.744C29.1639 127.154 27.1214 130.231 25.2519 133.24C21.07 139.973 18.13 147.349 15.5418 154.815C12.8498 162.58 10.5981 170.501 8.78039 178.516C7.85588 182.593 7.10504 186.699 6.48793 190.834C6.19088 192.825 5.92701 194.821 5.69525 196.821C5.44786 198.956 5.39103 201.154 4.7361 203.207C4.45532 204.087 3.79236 204.452 3.12877 204.421L2.99399 206.108C2.81526 208.356 2.64864 210.605 2.59236 212.867C2.499 216.629 2.54133 220.38 2.8118 224.133L2.85011 224.645C3.06264 227.385 3.53757 230.463 5.5968 232.469C7.72934 234.546 11.0088 235.2 13.8831 235.237C20.5776 235.324 27.0217 232.16 32.9456 229.384C39.0466 226.525 44.9809 223.352 50.773 219.91C53.7227 218.157 56.6405 216.346 59.5212 214.482C60.9348 213.567 62.3384 212.637 63.7315 211.692C64.5295 211.15 65.2856 210.556 66.0979 210.076C65.6999 209.705 65.5222 209.122 65.8556 208.613C63.5074 206.574 62.53 202.936 62.4157 199.991C62.3234 197.615 62.6731 195.245 62.949 192.891C63.0882 191.703 63.2602 190.518 63.4387 189.336C63.5093 188.87 63.5631 188.37 63.6455 187.877C57.3048 191.363 50.7863 194.467 44.0952 197.225C40.6655 198.639 37.1919 199.91 33.6702 201.075L32.9565 201.31C29.6197 202.402 26.2032 203.435 22.7536 204.059C22.5692 204.093 22.4194 203.82 22.6163 203.733C25.978 202.25 29.4561 200.998 32.8683 199.631L33.429 199.403C33.3645 199.399 33.2978 199.39 33.2281 199.374C31.2269 198.891 29.2414 198.146 27.2788 197.519C25.4572 196.937 23.4107 196.572 21.7081 195.693C21.5771 195.626 21.6504 195.444 21.778 195.435C23.6917 195.302 25.7691 195.86 27.6453 196.188L28.3502 196.312C29.5309 196.52 30.7379 196.744 31.9129 197.036C31.9554 196.642 32.1753 196.247 32.4882 196.015C35.9312 193.464 35.5816 188.312 35.9498 184.513L36.2229 181.693C36.7032 176.757 37.2113 171.821 37.9833 166.922C38.0245 166.66 38.4291 166.735 38.4307 166.983C38.4706 173.056 38.0123 179.101 37.7826 185.164L37.747 186.159C37.62 189.901 37.5205 193.786 35.165 196.665C35.4943 196.472 35.9397 196.472 36.2065 196.79C36.5344 197.18 36.7237 197.618 36.7178 198.048C38.8463 197.156 40.9655 196.24 43.0744 195.305C49.8546 192.3 56.4926 188.937 62.9551 185.299C63.6506 184.907 64.3117 185.215 64.6556 185.731L64.7052 185.724C64.7135 185.723 64.7219 185.722 64.7306 185.722L64.7798 185.72C64.7817 185.72 64.7836 185.72 64.7853 185.72C65.695 185.22 66.9343 185.576 67.715 186.305C67.738 186.327 67.7576 186.351 67.7781 186.374C68.7664 185.93 69.6893 185.331 70.5267 184.572C72.2405 183.018 73.6922 181.097 74.9576 179.17C77.2881 175.621 79.2677 171.675 82.4158 168.754C84.9736 166.381 88.1448 164.903 91.4716 163.976C91.4576 163.878 91.4948 163.775 91.562 163.706C91.7329 163.531 91.8548 163.47 92.0756 163.576C92.0931 163.585 92.1037 163.597 92.1109 163.61L92.4355 163.055C92.6127 162.754 92.7947 162.45 92.8577 162.371C93.2355 161.895 93.6242 161.423 94.0188 160.961C94.6879 160.178 95.4504 159.406 96.3333 158.863C98.2664 157.675 100.299 158.347 102.286 158.996C103.487 159.389 104.684 159.794 105.882 160.193L106.006 160.233C106.9 160.52 107.946 160.771 108.346 161.719C108.504 162.094 108.528 162.483 108.455 162.86C116.944 160.701 126.373 161.693 134.658 164.228C134.976 164.325 135.293 164.587 135.36 164.931C136.31 169.8 136.732 174.794 136.303 179.747C135.932 184.022 134.985 188.212 133.201 192.126L133.1 192.347C131.423 195.974 128.765 200.446 124.706 201.583C122.255 202.269 119.544 201.864 117.044 201.739C114.615 201.616 112.132 201.599 109.725 201.216C107.582 200.876 105.704 199.915 104.38 198.172C103.238 196.668 102.636 194.85 102.143 193.042C101.917 193.114 101.693 193.19 101.473 193.277C100.542 193.641 99.7526 194.228 99.0394 194.919C97.5333 196.378 96.365 198.15 94.7891 199.542C93.3626 200.803 91.7372 201.783 89.9936 202.537C86.3806 204.098 82.5048 204.723 78.6831 205.55L78.4165 205.608C75.5395 206.24 72.6029 207.015 70.0634 208.514C70.0138 208.955 69.8129 209.37 69.4909 209.642C69.9388 210.063 70.1285 210.729 69.7349 211.354C68.6355 213.1 66.7418 214.093 65.0417 215.209L64.9311 215.282C63.2587 216.391 61.5717 217.478 59.871 218.543C56.4136 220.709 52.884 222.755 49.3045 224.711C43.5472 227.858 37.6664 230.826 31.6791 233.518C32.0384 235.286 31.9071 237.11 32.1772 238.891L32.2186 239.145C32.334 239.805 32.1782 240.358 31.7232 240.79L31.675 240.834L31.6759 240.828L31.6332 240.867L31.6189 240.879L31.6237 240.876C31.5713 240.924 31.5171 240.968 31.462 241.007L31.3917 241.052C30.9535 241.318 30.3893 241.315 29.9406 241.08L29.8894 241.052L29.8032 241.003C29.2104 240.661 28.8016 239.816 29.0475 239.145C29.6519 237.495 29.8803 235.733 30.4385 234.072L29.9957 234.27L29.412 234.525C23.0998 237.255 16.0882 239.555 9.21053 237.693C6.17166 236.87 3.33138 235.13 1.81088 232.294C0.314687 229.503 0.103208 226.262 0.0237713 223.157C-0.0742569 219.325 0.131095 215.434 0.636236 211.635C0.975321 209.085 1.38539 206.487 2.01793 203.963C1.69257 203.676 1.45342 203.264 1.39025 202.754C1.09173 200.343 1.61419 197.837 1.93405 195.439C2.24652 193.098 2.59173 190.761 2.98215 188.432C3.77039 183.727 4.68624 179.033 5.7525 174.384C7.65011 166.109 10.156 157.982 13.1729 150.048L13.4371 149.357C16.2248 142.106 19.4527 135.01 23.9473 128.639C26.0974 125.592 28.3702 122.829 31.4082 120.632C34.2544 118.575 37.4648 117.093 40.7779 115.961C44.0946 114.827 47.5036 114.068 50.9729 113.596C54.4962 113.116 58.2151 112.822 61.5018 111.376C61.086 110.63 61.4429 109.624 62.1426 109.161C64.4974 107.605 66.6749 105.58 68.7855 103.709ZM144.167 171.388C144.266 171.238 144.5 171.333 144.457 171.51C143.311 176.204 142.236 180.908 141.534 185.691C140.267 194.325 140.5 203.071 140.604 211.769L140.609 212.218C140.662 216.903 140.736 221.588 140.891 226.271C140.969 228.638 141.124 231.028 141.04 233.396C140.994 234.68 140.651 235.895 140.53 237.165C140.424 238.274 140.519 239.401 140.572 240.513C140.607 241.252 139.517 241.22 139.443 240.513L139.348 239.598C139.225 238.44 139.073 237.289 138.693 236.181C138.237 234.848 138.018 233.539 137.86 232.139C137.618 229.994 137.51 227.828 137.416 225.668L137.352 224.175C136.962 215.149 136.975 206.081 137.608 197.065L137.654 196.421C138.28 187.899 139.367 178.69 144.167 171.388ZM119.754 117.674C119.455 117.551 119.56 117.099 119.891 117.178L120.493 117.321C124.908 118.379 129.242 119.525 133.362 121.493C137.485 123.463 140.976 126.403 143.749 130.018C149.141 137.046 151.381 145.586 153.15 154.119C155.115 163.6 156.905 173.116 158.888 182.595L159.256 184.36C161.091 193.189 162.823 202.022 164.099 210.954L164.191 211.602C165.478 220.788 166.252 230.291 164.848 239.501C164.57 241.323 161.539 240.869 161.658 239.069C162 233.865 162.245 228.688 162.008 223.472C161.771 218.256 161.282 213.062 160.553 207.891C159.939 203.539 159.025 199.241 158.215 194.924L158.088 194.242C157.411 190.57 156.712 186.902 156.015 183.234L154.973 177.741C153.412 169.517 151.819 161.285 150.021 153.113L149.914 152.632C148.153 144.769 145.558 136.533 140.277 130.289C134.919 123.953 127.247 120.761 119.754 117.674ZM100.282 201.073C100.411 200.785 100.862 200.817 101 201.073C101.543 202.075 101.604 203.354 101.706 204.486L101.717 204.602C101.848 205.983 101.963 207.368 102.034 208.754C102.168 211.383 102.232 214.008 102.224 216.641C102.216 219.338 102.161 222.033 102.016 224.726L101.977 225.448C101.844 227.789 101.621 230.4 100.51 232.446C100.105 233.191 99.0062 232.972 98.7721 232.219C98.0052 229.756 98.399 226.835 98.5957 224.312L98.7484 222.343C98.8997 220.374 99.0439 218.405 99.1583 216.433C99.3151 213.736 99.4444 211.037 99.5688 208.339C99.6092 207.462 99.6529 206.586 99.6991 205.709L99.7701 204.395C99.8308 203.295 99.8257 202.089 100.282 201.073ZM14.0536 204.564L14.3931 204.236C15.4353 203.216 16.7523 201.644 18.293 201.742C18.9074 201.781 19.2988 202.291 19.1714 202.895C18.8993 204.188 17.5812 204.859 16.6324 205.648C15.593 206.512 14.6133 207.436 13.6356 208.369C12.7682 209.196 11.934 210.046 11.1198 210.923L10.8154 211.254C10.5235 211.572 8.44527 213.453 8.66998 213.941L8.68221 213.962C8.74475 214.056 8.6406 214.184 8.53686 214.152C7.6394 213.868 7.69538 213.098 8.03468 212.319C8.68665 210.821 9.82834 209.435 10.8253 208.156C11.8196 206.879 12.8958 205.691 14.0536 204.564ZM103.534 166.996C102.84 165.355 100.284 165.389 98.8322 165.487C95.1772 165.735 91.2227 166.66 87.9707 168.369C84.5991 170.14 82.3281 172.979 80.296 176.118L80.2009 176.266C78.2203 179.346 76.3127 182.992 73.2113 185.109C71.6317 186.188 69.7871 187.173 67.8705 187.6C67.7388 187.832 67.5257 188.015 67.2462 188.081L67.1162 188.111C66.5704 188.232 65.7223 188.365 64.9898 188.285C64.9947 188.644 64.9909 189 65 189.339C65.0257 190.312 65.0367 191.29 65.0367 192.264C65.0372 194.304 64.9275 196.349 65.0126 198.389C65.0881 200.194 65.3429 202.08 66.2091 203.693C66.8443 204.877 67.6829 205.66 68.695 206.408C71.185 204.89 74.0006 203.964 76.8582 203.268C80.3141 202.427 83.8526 201.866 87.23 200.725C88.8555 200.175 90.4182 199.457 91.8341 198.48C93.3369 197.444 94.4847 196.041 95.6657 194.669L95.8503 194.456C97.0555 193.073 98.3706 191.75 100.074 191C101.541 190.355 103.474 190.24 104.757 189.24C105.427 188.717 105.483 187.959 105.554 187.182C104.733 187.299 103.863 187.111 103.044 187.015L102.62 186.965C101.846 186.873 101.09 186.772 100.328 186.575C100.186 186.538 100.186 186.325 100.328 186.288C101.228 186.056 102.121 185.957 103.044 185.848L103.261 185.821C104.097 185.712 104.975 185.546 105.794 185.73C105.941 185.171 106.154 184.636 106.452 184.101C106.87 183.349 107.661 182.497 107.768 181.619C107.8 181.356 107.739 181.047 107.615 180.815L107.572 180.736C107.52 180.643 107.459 180.549 107.369 180.491C107.359 180.503 107.338 180.516 107.292 180.53C106.661 180.729 106.111 180.42 105.819 179.944C104.58 180.098 103.227 180.046 102.065 180.098L100.889 180.155C99.6335 180.212 98.3206 180.237 97.1405 179.984C96.9757 179.948 96.9259 179.674 97.0909 179.603C98.5417 178.983 100.302 178.785 101.855 178.546C102.722 178.413 103.596 178.311 104.466 178.194C105.045 178.116 105.66 177.987 106.26 177.956C107.765 176.082 106.954 173.125 104.86 172.318C104.097 172.654 103.411 172.459 102.578 172.387C101.746 172.316 100.912 172.267 100.076 172.271C98.4024 172.278 96.6286 172.719 94.971 172.529C94.7015 172.498 94.4509 172.139 94.719 171.92C95.9879 170.884 97.8063 170.547 99.4169 170.326L99.7507 170.281C100.291 170.21 100.947 170.107 101.628 170.045C101.783 169.745 102.059 169.518 102.474 169.461C102.597 169.444 102.721 169.434 102.845 169.424L102.843 169.412C103.856 169.363 103.812 167.652 103.534 166.996ZM34.2238 199C34.2059 199.027 34.1863 199.054 34.1655 199.079L34.1333 199.116L34.2998 199.048L34.2238 199ZM121.201 163.329C116.939 162.871 112.672 162.968 108.398 163.091C108.056 164.209 106.866 165.162 105.714 165.198C106.617 166.573 106.71 168.434 106.077 169.892C107.421 170.427 108.579 171.389 109.282 172.759C110.257 174.657 110.129 176.77 109.166 178.524C109.988 179.269 110.474 180.479 110.425 181.619C110.371 182.89 109.613 183.976 108.984 185.028C108.304 186.167 108.281 187.169 108.072 188.444C107.766 190.31 106.509 191.441 104.89 192.148L104.976 192.487C105.393 194.111 105.913 195.826 107.105 197.014C108.639 198.543 111.019 198.529 113.046 198.625L113.144 198.63C115 198.723 116.856 198.832 118.711 198.937L120.103 199.015C122.239 199.132 124.291 199.146 126.035 197.734C128.882 195.427 130.834 191.611 132.069 188.232C134.663 181.14 134.694 173.357 133.503 165.97C129.511 164.683 125.369 163.777 121.201 163.329ZM85.763 175.095L85.7943 175.098C86.6717 175.198 87.2744 175.909 87.4891 176.752C87.8009 177.977 87.648 179.085 88.3982 180.191C89.1699 181.329 89.6444 182.239 89.7566 183.645C89.8027 184.223 89.7816 184.8 89.9102 185.366L90.0035 185.762C90.1026 186.185 90.1837 186.592 90.1344 187.046C90.0894 187.46 89.8878 187.783 89.4727 187.916C88.1199 188.348 87.0754 187.351 86.726 186.09C86.4241 185.001 86.8272 183.703 86.4013 182.68C86.1653 182.113 85.7301 181.638 85.4842 181.068C85.2406 180.502 85.1182 179.911 85.0792 179.296C85.005 178.132 86.0335 176.735 85.4597 175.681C85.3375 175.456 85.4758 175.089 85.763 175.095ZM67.7941 163.091C68.7101 162.905 69.7494 162.478 70.6528 162.833C71.1171 163.015 71.3466 163.582 70.9542 163.976C70.2731 164.659 69.2831 164.697 68.3656 164.858L68.2849 164.872C67.2 165.073 66.1132 165.263 65.025 165.444C62.9776 165.783 60.9254 166.083 58.8659 166.338C56.7507 166.6 54.6296 166.833 52.5055 167.008L51.6832 167.076C49.8889 167.219 48.022 167.328 46.2615 167.053C46.0056 167.013 46.0468 166.64 46.2615 166.575C48.1901 165.991 50.3058 165.834 52.2997 165.587C54.4196 165.324 56.5358 165.046 58.6466 164.717C60.754 164.387 62.8587 164.034 64.9555 163.643C65.9032 163.467 66.8495 163.283 67.7941 163.091ZM100.848 161.216C100.044 160.931 99.1596 160.51 98.2886 160.651C96.7865 160.894 95.4496 162.358 94.2605 163.322L94.8576 163.206C97.9123 162.619 101.958 161.986 104.522 163.929C104.529 163.918 104.534 163.907 104.541 163.896C104.748 163.581 104.988 163.336 105.25 163.067C105.275 163.043 105.299 163.019 105.323 162.994L105.464 162.843L105.141 162.732C104.449 162.487 103.629 162.171 103.5 162.125L103.491 162.122C102.609 161.823 101.726 161.527 100.848 161.216ZM75.7489 97.1612C75.6232 95.5438 78.1396 95.5571 78.2643 97.1612C78.5362 100.663 77.7483 104.132 76.0527 107.202C76.0402 107.225 76.0265 107.245 76.0134 107.266C77.074 107.818 78.1466 108.348 79.2431 108.821C80.6457 109.427 82.0747 109.978 83.5293 110.446C84.845 110.87 86.4661 111.037 87.5723 111.918C89.9049 113.777 89.0286 117.633 88.5798 120.132L88.5098 120.527C88.2864 121.813 88.1248 123.133 88.6669 124.368C89.2457 125.686 90.4164 126.664 91.4607 127.608L91.6716 127.799C92.5967 128.642 93.6539 129.667 94.3324 130.81C94.9519 129.528 95.7963 128.481 96.6891 127.303C97.3261 126.462 96.8727 126.184 96.4151 125.363C95.9746 124.572 95.7595 123.729 95.8973 122.826C96.1514 121.16 97.4826 119.956 98.8077 119.052C100.373 117.985 102.119 117.194 103.737 116.201C107.061 114.16 110.298 111.827 113.215 109.236C113.295 109.165 113.435 109.259 113.37 109.356C111.066 112.862 108.365 115.891 105.045 118.463C103.699 119.505 102.284 120.37 100.861 121.279L100.451 121.542C99.8797 121.912 99.1667 122.407 98.9083 123.038C98.6482 123.672 99.2028 124.151 99.5013 124.677C100.449 126.345 99.9919 127.902 98.8681 129.317L98.8157 129.382C97.699 130.759 96.8526 132.039 96.4479 133.798C95.5781 137.576 96.7896 141.512 98.0577 145.059L98.1078 145.199C98.7938 147.111 99.5228 149.009 100.119 150.951L100.283 151.488C100.823 153.276 101.265 155.038 100.659 156.876C100.453 157.501 99.6012 157.648 99.2474 157.06C97.999 154.986 97.6878 152.49 96.9052 150.21C96.1426 147.987 95.2669 145.805 94.5302 143.573C93.5816 140.7 92.9467 137.607 93.2913 134.593C93.2812 134.575 93.27 134.559 93.2615 134.54L93.02 134.012C92.3616 132.581 91.7256 131.331 90.5281 130.191C89.2791 129.001 87.9234 127.948 86.9406 126.508C84.8058 123.38 86.1261 119.9 86.3839 116.479L86.4134 116.06C86.4603 115.35 86.486 114.385 86.0222 113.893C85.5006 113.34 84.2774 113.199 83.5852 112.954C81.7967 112.321 80.034 111.583 78.3553 110.697C76.7573 109.853 75.2093 108.922 73.7681 107.83L73.0376 107.281C71.885 106.411 70.6898 105.461 69.9173 104.276C69.8281 104.14 69.9796 103.92 70.141 103.985C71.4306 104.509 72.6088 105.342 73.8154 106.066C73.8342 106.022 73.856 105.977 73.8807 105.932C75.3735 103.23 75.9874 100.235 75.7489 97.1612ZM116.943 115.679C117.456 114.269 119.798 114.378 119.705 116.053C119.633 117.339 119.087 118.501 118.588 119.669L118.534 119.794C118.019 121.011 117.424 122.154 116.711 123.27C115.35 125.402 113.756 127.381 112.053 129.249C110.509 130.942 108.482 131.978 106.147 131.806C105.163 131.733 104.17 131.483 103.308 130.991C102.284 130.407 101.172 128.653 99.8652 129.078C99.7389 129.119 99.621 128.934 99.7302 128.846C101.238 127.631 102.95 129.515 104.394 129.969C106.57 130.652 108.803 129.896 110.204 128.137C111.666 126.3 113.012 124.242 114.24 122.242C114.865 121.226 115.434 120.172 115.926 119.085C116.422 117.989 116.535 116.797 116.943 115.679ZM113.435 107.004C113.372 106.81 113.614 106.625 113.784 106.736C114.776 107.381 115.634 108.234 116.549 108.982C117.563 109.811 118.584 110.623 119.622 111.423C121.134 112.59 119.38 114.737 118.049 113.463C116.227 111.72 114.232 109.441 113.435 107.004ZM107.994 100.182C108.397 98.629 110.778 99.2695 110.431 100.804L110.42 100.851C109.762 103.387 110.698 105.968 112.697 107.612L112.77 107.672C114.035 108.684 112.243 110.453 110.992 109.451C108.259 107.263 107.122 103.546 107.994 100.182Z" fill="black"/>
<path fill-rule="evenodd" clip-rule="evenodd" d="M128.677 50.7369C127.893 44.4765 125.43 37.8296 122.839 31.9932C117.014 19.6533 103.677 17.9543 91.7211 15.4101C79.9231 13.6918 67.4297 12.1403 55.8096 15.5686C49.277 17.1696 46.7255 24.9528 47.7565 31.0948C48.3449 34.9222 50.0864 38.5445 51.5714 42.0916C54.523 49.376 56.3957 57.1746 56.3988 65.0613C56.1962 70.2153 55.469 76.0981 61.3896 78.2811C67.0235 81.0838 67.4995 88.6814 74.5539 92.9921C77.4064 98.7724 85.1767 99.2811 90.7691 100.622C94.3038 101.299 97.8785 101.797 101.463 102.118C111.842 103.449 120.144 100.44 125.577 91.1912C129.213 85.5623 131.92 79.0629 131.252 72.2409C130.585 65.0571 129.476 57.9109 128.677 50.7369Z" fill="white"/>
<path fill-rule="evenodd" clip-rule="evenodd" d="M91.8108 0.413958C92.4032 -0.257713 93.3159 -0.0273412 93.8698 0.503782C94.2304 0.610091 94.5799 0.768181 94.9099 0.977418C95.6556 0.881676 96.4375 0.881676 97.169 0.908518C97.3464 0.808972 97.5366 0.720416 97.7436 0.64433C99.2225 0.103485 100.532 0.37824 101.612 1.10233C102.133 0.60988 102.789 0.300886 103.628 0.347594C104.377 0.389442 104.911 0.741974 105.368 1.20631C105.824 0.548377 106.562 0.0789679 107.48 0.0136606C108.764 -0.0776427 109.998 0.437418 111.021 1.23484C111.617 0.550913 112.43 0.157802 113.335 0.153997C113.931 0.0457861 114.56 0.0884787 115.128 0.260095C115.953 0.509277 116.677 0.97615 117.254 1.58209C118.166 0.707946 119.283 0.0789681 120.571 0.170694C122.238 0.291164 123.62 1.51721 124.262 3.02625C125.39 3.47833 126.432 4.12316 127.302 5.04253C127.349 5.09093 127.393 5.14165 127.439 5.19259C127.908 5.36568 128.35 5.61106 128.739 5.93422C129.97 6.95948 130.245 8.44316 129.837 9.89703C129.894 10.1297 129.943 10.3664 129.987 10.6029C131.141 10.7784 132.189 11.4443 132.784 12.5286C133.6 14.0165 133.439 15.9776 132.556 17.3981C132.177 18.0091 131.695 18.5239 131.153 18.9741C131.765 20.3648 131.472 22.0243 130.485 23.1491C130.245 23.537 129.949 23.8869 129.617 24.2038C129.984 25.6416 129.332 27.125 128.031 27.8933L127.919 28.172C127.9 28.2183 127.881 28.2644 127.862 28.3101C127.848 28.3693 127.83 28.4265 127.812 28.4842C127.781 28.9944 127.613 29.4951 127.28 29.9669C126.597 30.9336 125.751 31.5641 125.303 32.6926L125.258 32.8112C125.065 33.3453 124.442 33.7221 123.911 33.5573C126.858 39.6106 128.403 46.3461 129.463 52.947C129.992 56.2401 130.4 59.5445 130.731 62.8617L131.056 66.1649C131.341 69.1011 131.595 72.047 131.597 74.9929C131.601 81.657 129.696 88.0671 125.606 93.37C121.737 98.3831 116.263 102.016 110.08 103.447C103.695 104.922 96.2056 104.341 90.4802 100.964C88.7922 99.9705 90.2711 97.582 91.9887 98.3812C95.2401 99.8944 98.5443 101.019 102.149 101.27C105.662 101.517 109.184 101.078 112.515 99.928C118.027 98.024 122.718 94.0358 125.732 89.0691C127.218 86.6214 128.293 83.965 128.865 81.158C129.578 77.6596 129.471 74.0435 129.209 70.5004L129.191 70.2589C128.673 63.4321 127.991 56.5632 126.888 49.8044C125.913 43.8276 124.414 37.972 122.468 32.2458C121.706 31.5746 120.853 31.0192 119.941 30.5973C113.259 30.3181 106.565 30.3997 99.8922 30.8609C94.2011 31.2568 88.5375 31.9265 82.9168 32.9026L82.3147 33.0084C81.0704 33.2301 79.6887 33.3569 78.5161 33.858C77.5105 34.2892 77.1028 35.1177 76.8492 36.1362C76.2112 38.7125 76.114 41.5322 76.0063 44.174C75.9006 46.7565 76.1394 49.3606 75.9323 51.9346C75.757 54.0883 75.2056 56.2927 73.6105 57.8505C72.776 58.6661 71.7492 59.1121 70.7859 59.7313C70.1626 60.131 69.8985 60.5429 69.9788 61.2826C70.1521 62.9016 71.4556 64.9411 69.9915 66.3276C69.7337 66.5706 69.288 66.6023 69.0344 66.3276C68.4302 65.6705 67.5957 65.1694 66.8795 64.6389C66.5795 64.4193 66.8288 63.9923 67.169 64.1443C67.6168 64.3453 68.0732 64.582 68.5401 64.7891C67.5091 63.9395 66.0429 63.5229 64.8218 63.2757C64.207 63.1531 63.5605 63.1172 62.9204 63.1744C62.4471 63.4004 61.9633 63.6098 61.4795 63.8146C60.8647 64.0727 60.2436 64.3071 59.6183 64.5292C57.4485 66.298 56.4133 69.1747 56.8654 71.9877C57.1126 73.5409 57.8288 75.2298 59.1788 76.1365C60.7781 77.2102 62.9204 76.7492 64.6485 77.5462C66.2668 78.2921 67.2514 79.7992 67.9887 81.359L68.2961 82.0084C68.9804 83.4462 69.6839 84.8458 70.619 86.1543C71.7006 87.6697 73.0253 89.0308 74.4704 90.1998C75.1714 90.7655 75.9186 91.2744 76.6908 91.7378L76.9021 91.8631C77.6837 92.3217 78.2436 92.759 78.2964 93.7291C78.3133 94.0673 78.0999 94.3759 77.8253 94.5513C76.6422 95.3016 75.4654 94.3632 74.4809 93.708C73.4183 93.0021 72.4021 92.2076 71.4619 91.3411C69.6746 89.6968 68.1281 87.7439 66.9387 85.6238C66.0323 84.0093 65.5168 81.7373 64.0844 80.4861C63.2098 79.7229 61.9739 79.7168 60.8816 79.5771C59.8654 79.4463 58.9042 79.2349 57.9999 78.734C54.3218 76.6903 53.2823 71.7426 54.1549 67.9192C54.3028 67.2744 54.5098 66.6467 54.7654 66.0422C53.3964 66.2705 51.8584 64.8547 52.414 63.4257C52.4563 63.3179 52.5049 63.2167 52.5514 63.1129C51.6492 62.519 50.9373 61.6189 50.5992 60.4415C50.426 59.8328 50.4006 59.2177 50.4915 58.6238C50.0542 58.3303 49.6929 57.9264 49.4605 57.4297C48.7337 57.0937 48.0894 56.5909 47.7049 55.8723C47.1725 54.8808 47.2401 53.9678 47.6457 53.1456C47.5887 53.0423 47.5337 52.9366 47.4809 52.8286C45.9915 51.8841 44.9521 50.2565 45.0704 48.4516C45.1084 47.8534 45.2563 47.3145 45.4844 46.8286C45.4654 46.7673 45.4464 46.7037 45.4295 46.6424C44.183 46.0083 43.1521 44.9666 42.7844 43.5759C42.4168 42.1766 42.8499 40.7817 43.7161 39.708C42.4485 38.7804 41.6859 37.4848 42.1485 35.5254C42.3366 34.7288 42.7147 34.0037 43.226 33.3928C43.2239 33.374 43.2197 33.355 43.2154 33.3358L43.0968 33.2438C41.532 32.0084 40.6324 30.4341 41.5929 28.498C42.0239 27.6274 42.6387 27.0206 43.3612 26.6212L43.3971 26.5071C42.8795 25.3975 42.7042 24.1653 43.0612 22.8697C43.3528 21.8026 44.0436 20.9528 44.9267 20.3887C44.8675 19.9108 44.876 19.4017 44.9711 18.8498C45.1295 17.918 45.5922 17.1043 46.2683 16.5273C46.2936 16.4045 46.3253 16.2843 46.3612 16.1636C46.5894 15.4262 47.0161 14.6252 47.5105 14.031C47.9183 13.5386 48.3746 13.359 48.9323 13.3399C48.8985 12.8857 48.9218 12.4248 49.0147 11.9577C49.2999 10.5165 50.2168 9.16154 51.5753 8.54651C52.133 8.295 52.7204 8.22124 53.2866 8.28232C53.7683 7.26784 54.7084 6.53255 55.864 6.37404C56.314 6.31063 56.7323 6.31465 57.1168 6.37192C57.3344 6.27026 57.5605 6.17959 57.7971 6.09696C57.9535 6.04201 58.1119 5.99128 58.2704 5.94077C58.8049 5.27713 59.5084 4.74643 60.3302 4.4275C61.2788 4.05764 62.2443 4.09547 63.0999 4.40615L63.3725 4.34909C63.7992 3.60936 64.4795 3.0366 65.5253 2.77664C66.7126 2.48287 67.9316 2.89289 68.8654 3.63916C68.8697 3.63916 68.8739 3.63916 68.8802 3.63684C69.3683 2.54416 70.2028 1.7833 71.6035 1.83613C72.476 1.86995 73.264 2.30343 73.8725 2.92057C74.2105 2.87809 74.5485 2.84005 74.8887 2.80222C75.2478 2.38142 75.6471 1.98852 76.0887 1.63556C76.8112 1.05625 77.7514 1.10296 78.2837 1.91856C78.3999 2.09609 78.5077 2.27574 78.6154 2.45539L79.1035 2.42157C79.6781 1.64592 80.4619 1.12177 81.5352 1.07971C82.5197 1.03934 83.2211 1.52143 83.7556 2.19543C84.1908 2.18486 84.6281 2.17662 85.0654 2.17007C85.5746 1.5804 86.1746 1.06048 86.8591 0.629324C87.383 0.299618 88.1563 0.411845 88.5809 0.851453C88.8678 1.1503 89.1349 1.46226 89.3831 1.7852C90.023 1.06745 90.8873 0.594663 91.8108 0.413958ZM60.7168 67.5282C61.7035 66.966 63.0302 67.5747 63.9852 68.0523C65.1492 68.6335 66.3049 69.5106 67.0168 70.6096C67.9866 72.106 65.707 73.3149 64.6866 71.9729C64.0591 71.1465 63.5584 70.3138 62.7978 69.5909C62.1028 68.9273 61.095 68.4835 60.6957 67.6085C60.6809 67.5789 60.6852 67.5451 60.7168 67.5282ZM61.4099 31.2074L61.4284 31.1546C61.709 30.3868 60.4844 30.0558 60.2062 30.8173C59.7845 31.9715 60.2706 33.2263 61.4102 33.7247C61.7261 33.8629 62.0869 33.8149 62.2773 33.4973C62.4372 33.2299 62.363 32.7666 62.0499 32.6299C61.4088 32.3494 61.194 31.8543 61.4099 31.2074ZM50.861 29.0604C51.4739 28.5193 50.5745 27.6251 49.9646 28.1638C49.3954 28.6664 48.9733 29.3491 49.083 30.1342C49.1947 30.9344 49.7979 31.4994 50.4581 31.8986C51.1578 32.3219 51.7956 31.2259 51.0978 30.8036L51.0194 30.7556C50.7265 30.5736 50.3837 30.3234 50.3341 29.9654C50.2815 29.5849 50.6033 29.288 50.861 29.0604ZM54.34 19.5133L54.3835 19.4813C55.0418 19.0113 54.4094 17.911 53.7435 18.3863C53.133 18.8224 52.6433 19.3888 52.5917 20.1699C52.5416 20.9291 52.9278 21.5872 53.4328 22.1213C53.9945 22.7154 54.8899 21.8176 54.3292 21.2248C53.7828 20.647 53.676 20.0165 54.34 19.5133Z" fill="black"/>
<path fill-rule="evenodd" clip-rule="evenodd" d="M111.326 83.5585C111.65 82.9949 112.396 82.4726 113.079 82.5527C116.138 82.9116 116.133 86.6216 114.952 88.7876C113.904 90.7081 111.737 91.8354 109.568 91.6708C107.289 91.4977 105.347 90.1573 104.492 88.0246C103.927 86.6138 103.666 84.0094 105.17 83.0615C105.197 83.0437 105.244 83.0481 105.266 83.0737C105.987 83.9126 106.015 85.172 106.646 86.106C107.233 86.9746 108.145 87.6919 109.213 87.8027C110.011 87.8855 110.818 87.5977 111.13 86.8812C111.299 86.4936 111.279 86.2832 111.216 86.0165L111.158 85.7847C110.958 84.9728 110.869 84.3546 111.326 83.5585ZM112.144 67.2878C113.739 68.2579 116.17 70.52 114.454 72.925C112.434 75.0456 109.525 72.6142 108.092 71.5146C106.763 70.6624 105.269 72.8542 106.503 73.8493C116.86 81.5203 121.063 67.5414 112.951 66.1472C112.058 65.9935 111.726 66.9877 112.144 67.2878ZM95.2968 60.6356C96.276 59.1659 98.5112 59.3823 99.0506 61.1264C99.3428 62.0711 98.9393 62.9203 98.9602 63.8638C98.9777 64.6608 98.9255 65.5489 98.6813 66.3207C98.1244 68.0809 96.542 69.324 94.67 69.2725C92.8041 69.2211 91.1606 68.0396 90.3791 66.3757C89.5949 64.7054 89.761 62.9767 90.3335 61.2783C90.361 61.1968 90.4679 61.1572 90.5323 61.2259C91.2091 61.9454 91.7045 62.7049 92.2171 63.5107L92.7425 64.3364C93.1439 64.9582 93.7274 65.7525 94.4771 65.7026L94.5896 65.6915C94.7979 65.6736 94.766 65.715 94.9267 65.4309C95.001 65.2995 94.9875 65.0552 95.0234 64.9L95.0359 64.8476L95.0291 64.8194C95.0132 64.7442 94.9975 64.6027 94.9847 64.357L94.982 64.3028C94.9277 63.1536 94.603 61.6769 95.2968 60.6356ZM120.119 61.6141C119.943 59.7343 122.585 59.3169 123.463 60.7078C123.921 61.4331 124.055 62.3443 124.156 63.2075L124.203 63.6172C124.307 64.5039 124.349 65.4262 123.964 66.2532C123.358 67.5558 122.04 68.2443 120.619 68.1353C119.261 68.0309 118.023 67.2436 117.37 66.0484C116.788 64.9819 116.209 62.8997 116.916 61.7874C116.959 61.72 117.044 61.7113 117.103 61.7633C117.771 62.3565 117.88 63.4387 118.277 64.2116C118.687 65.0088 119.308 65.7857 120.25 65.9068C121.15 66.0226 121.495 65.5304 121.265 64.6712C120.968 63.5621 120.231 62.8076 120.119 61.6141ZM96.0103 49.4601L96.4423 49.2946C97.9225 48.7352 99.9547 48.0887 101.158 49.2927C101.9 50.0352 102.042 51.1289 101.512 52.035C100.87 53.1325 99.7183 53.1596 98.6062 53.3213C97.3413 53.5051 96.0549 53.8547 94.8773 54.3531C93.5508 54.9146 92.3197 55.6146 91.1136 56.3964C89.9672 57.1393 88.8249 58.3535 87.4527 58.5824C87.3967 58.5917 87.3332 58.5676 87.3186 58.5061C87.007 57.164 87.8729 55.8433 88.6458 54.7963C89.5808 53.5286 90.7139 52.4881 91.9802 51.5552C93.2024 50.6547 94.5989 50.0039 96.0103 49.4601ZM122.898 54.2317L123.03 54.2086C123.927 54.0591 124.741 54.0935 125.417 54.8047C125.933 55.3472 126.133 56.0504 125.886 56.7677C125.659 57.4294 125.151 58.1017 124.414 58.2404C121.926 58.7087 119.169 58.6314 116.668 58.2767C115.524 58.1144 114.37 57.9158 113.255 57.6025L112.742 57.4538C111.812 57.1879 110.747 56.9101 110.071 56.2256C109.828 55.9796 109.968 55.6274 110.258 55.5135C111.438 55.0515 113.054 55.2973 114.312 55.2612C115.774 55.2193 117.24 55.1096 118.695 54.9585C120.118 54.8106 121.495 54.4891 122.898 54.2317Z" fill="black"/>
<path fill-rule="evenodd" clip-rule="evenodd" d="M93.3221 89.0195C95.0326 85.0107 98.7658 82.0645 103.064 80.9874C106.22 80.1984 109.533 80.2236 112.75 80.5367C114.436 80.6997 116.244 80.8332 117.833 81.4594C119.19 81.9945 120.295 83.0058 121.127 84.193C122.116 85.5998 122.789 87.2099 123.262 88.8601C123.329 89.0948 123.392 89.3311 123.451 89.5687C123.245 90.8138 122.809 91.8736 121.656 92.6565C120.531 93.4209 119.189 93.7336 117.851 93.8447C117.72 93.7816 117.593 93.7169 117.477 93.6504C115.391 92.4563 113.924 89.6343 111.292 90.0162C108.943 90.3573 107.397 93.3136 106 95.0473C101.517 95.5699 97.0368 94.2221 93.3888 91.6574C93.2035 90.7796 93.1928 89.8943 93.3221 89.0195ZM126.498 85.9785C126.139 84.9716 125.688 83.9964 125.152 83.0778C123.382 80.0397 120.665 77.6191 117.439 76.2354C109.807 72.9665 99.933 75.2708 93.77 80.6319C91.6648 82.4646 89.5362 85.1578 88.8924 88.0547C88.7002 88.0928 88.5188 88.1928 88.3694 88.3337C83.9167 85.5293 79.3313 82.8311 75.7433 78.9436C73.1376 76.119 71.3252 72.7763 70.2154 69.1032C70.1247 68.8008 69.6373 68.845 69.6521 69.1795C69.6563 69.2578 69.6605 69.3359 69.6647 69.4142C69.6183 69.2703 69.3989 69.3443 69.382 69.484C68.7849 73.9461 68.038 78.677 68.7258 83.1624C69.1373 85.8388 70.3526 87.7982 71.9772 89.914C73.7178 92.1819 75.6884 94.2913 77.7034 96.3142C78.9819 97.5983 80.3175 99.0793 81.883 100.021C83.7038 101.115 85.7694 101.946 87.7126 102.79C89.6895 103.651 91.696 104.447 93.7405 105.137C97.8273 106.52 102.051 107.477 106.349 107.896C109.79 108.23 113.723 108.594 117.021 107.299C119.548 106.307 121.589 104.513 123.207 102.354C124.969 100.004 126.361 97.3264 127.131 94.5029C127.931 91.57 126.667 86.4514 126.498 85.9785Z" fill="black"/>
</svg>
