<svg width="167" height="237" viewBox="0 0 167 237" fill="none" xmlns="http://www.w3.org/2000/svg">
<path fill-rule="evenodd" clip-rule="evenodd" d="M18.5438 235.426C31.4801 235.788 43.7004 236.188 56.6118 235.426C77.2729 234.148 137.906 236.452 151.234 235.426C152.24 235.349 155.699 236.452 155.771 235.426C156.357 228.281 156.737 155.991 154.996 151.017C153.255 146.043 144.664 122.132 133.716 110.983C130.663 107.971 126.018 106.804 123.452 103.323C121.239 99.5272 121.411 97.2994 119.226 95.3024C118.278 94.4358 116.042 94.0844 114.38 92.8815C112.71 91.2205 114.292 87.5642 113.606 85.2512C112.192 79.4758 106.985 75.7706 101.294 74.8975C93.3836 73.004 85.0327 74.7943 81.2437 81.0103C79.8333 83.324 80.5839 86.1364 78.8493 89.844C78.9731 92.6459 75.7033 93.3228 73.7488 94.4331L69.8675 98.3573C57.9098 105.088 43.8428 108.722 33.3655 117.765C24.4576 126.805 15.5974 137.254 11.645 149.485C10.8268 152.818 10.5598 156.262 10.2207 159.668C9.25264 169.62 6.55708 179.279 4.23736 188.973C1.59229 201.187 -0.873345 214.152 2.69158 226.482C3.7194 229.091 16.204 235.304 18.5438 235.426Z" fill="white"/>
<path fill-rule="evenodd" clip-rule="evenodd" d="M80.5584 82.0055C80.662 81.6671 81.108 81.7623 81.1418 82.0837C81.4777 85.2709 81.0551 88.6018 80.6495 91.7678C80.4551 93.2959 80.343 94.8852 80.0472 96.3919C80.0092 96.5528 79.9732 96.7153 79.9394 96.8761C80.0366 97.0492 80.3242 97.2437 80.4613 97.3768L81.0577 97.9569L82.2528 99.1143C84.5918 101.38 86.9303 103.648 89.269 105.913L92.7021 109.242C93.8791 110.383 95.2164 111.476 96.2493 112.749C96.8094 113.439 96.9359 114.287 96.3845 115.027C96.112 115.392 95.622 115.659 95.1254 115.714C95.3197 115.984 95.4697 116.291 95.5648 116.631C95.7592 117.324 95.058 118.176 94.3122 117.886C93.465 117.561 92.7655 116.977 91.9035 116.698C91.0331 116.415 90.0868 116.361 89.1845 116.512C88.7704 116.582 88.3648 116.686 87.9697 116.817C92.1974 118.764 96.7711 119.882 101.436 120.042C102.387 120.074 103.335 120.061 104.28 119.998C105.869 119.894 107.446 119.653 108.997 119.264C110.216 118.958 111.423 118.573 112.593 118.108C113.168 117.88 113.736 117.629 114.285 117.343L114.334 117.315C114.458 117.237 116.753 115.935 116.793 115.739C116.833 115.543 116.833 115.475 116.759 115.305C116.709 115.191 116.615 115.095 116.477 115.017C115.767 114.714 115.033 114.432 114.258 114.426C112.475 114.416 110.529 115.735 109.054 116.633C107.434 117.62 105.944 118.774 104.385 119.844C104.349 119.869 104.309 119.879 104.271 119.879C104.107 119.879 103.954 119.676 104.06 119.518C105.177 117.872 106.686 116.501 108.263 115.305L108.899 114.828C110.344 113.75 112.034 112.556 113.791 112.296C115.944 111.979 118.192 113.321 120.112 114.107L123.513 115.5C124.12 115.747 124.779 115.959 125.389 116.24L123.964 111.778C123.252 109.548 122.542 107.316 121.838 105.083L121.702 104.645C121.001 102.379 120.358 100.021 119.191 97.9498C118.912 97.4531 118.593 96.986 118.278 96.5145C117.951 96.0265 117.828 95.4876 117.416 95.052C116.601 94.1875 115.432 93.6803 114.317 93.3487C114.044 93.2684 114.125 92.9091 114.38 92.8816C115.525 92.7609 116.617 93.028 117.651 93.511L118.081 93.7162C119.059 94.1792 120.013 94.6098 120.739 95.4408C122.396 97.3388 123.256 99.7285 124.046 102.087L124.257 102.72C124.553 102.623 126.562 103.236 126.813 103.381C134.345 106.567 140.147 112.497 144.389 119.446C149.037 127.061 151.568 135.762 153.657 144.373C154.302 147.03 154.919 149.696 155.511 152.367C152.872 153.383 150.066 153.915 147.596 155.346C146.654 155.891 147.504 157.353 148.448 156.806C150.763 155.466 153.399 154.97 155.876 154.029C157.219 160.214 158.414 166.432 159.414 172.677C162.488 191.842 164.43 211.32 164.307 230.747C164.305 231.177 164.178 231.656 163.944 232.068C164.081 232.001 164.189 231.92 164.25 231.823C165.03 230.599 166.984 231.735 166.2 232.965L166.086 233.143C165.497 234.05 164.948 234.743 163.914 235.255C162.873 235.771 161.744 235.858 160.595 235.888C156.689 235.99 152.78 236.057 148.87 236.106C148.333 231.921 148.115 227.697 147.376 223.537C147.187 222.468 145.557 222.921 145.747 223.987C146.46 228.004 146.689 232.082 147.187 236.126C138.827 236.216 130.462 236.217 122.109 236.241C110.788 236.274 99.4686 236.25 88.1483 236.244L83.2967 236.242C70.2192 236.242 57.1416 236.2 44.0643 236.113L40.9542 236.092C39.717 228.795 38.8749 221.437 38.8593 214.023C38.857 212.935 37.1668 212.933 37.1692 214.023C37.1848 221.429 38.0176 228.788 39.2434 236.082C36.147 236.068 33.0522 236.08 29.9556 236.19L28.3796 236.246C25.2262 236.354 22.0665 236.42 18.919 236.169C15.4246 235.888 11.8904 235.245 8.75725 233.599C7.3462 232.856 6.10373 231.906 5.0419 230.79C6.12127 230.161 7.21606 229.559 8.26162 228.875C9.16817 228.281 8.32246 226.817 7.40852 227.415C6.28183 228.152 5.09746 228.795 3.93739 229.477C3.09739 228.355 2.40803 227.111 1.88451 225.768C1.05845 223.648 0.739437 221.368 0.462676 219.123C0.135423 216.479 0 213.814 0 211.151C0 205.55 0.589437 199.966 1.41148 194.433C2.19758 189.132 3.2367 183.874 4.33508 178.633L4.48521 177.918C5.56901 172.765 6.60211 167.598 7.84437 162.481C8.99303 157.75 10.3204 153.04 11.9024 148.422C13.3105 149.293 14.7841 150.055 16.1702 150.962C17.0831 151.56 17.9309 150.097 17.0233 149.503C15.5444 148.534 13.9671 147.73 12.4747 146.784C14.2437 141.839 16.32 137.009 18.8094 132.383C23.7951 123.119 30.5136 114.832 39.1185 108.716C43.4261 105.655 48.1521 103.151 53.115 101.329C58.1749 99.4694 63.4183 98.4505 68.7803 98.0322C68.9334 98.0201 69.0193 98.1618 69.013 98.2929L69.0108 98.3173L69.222 98.3514C69.3002 97.8209 69.4608 97.3071 69.7671 96.836C70.4643 95.7623 71.7866 95.0733 72.843 94.4139L73.0934 94.258C74.3502 93.4787 75.6765 92.711 77.1382 92.4378C77.1889 92.4291 77.2204 92.4819 77.1866 92.5223C76.2227 93.6279 74.9901 94.4727 73.8604 95.4078L73.6008 95.6244C72.6646 96.3952 71.3587 97.27 71.3239 98.5583C71.284 100.076 71.5944 101.655 71.7065 103.168C71.8185 104.677 71.8965 106.184 71.9366 107.697C72.0826 113.118 71.9072 118.542 71.4275 123.942L73.5485 122.521C76.8493 120.311 80.161 118.106 83.5415 116.037C85.5868 114.784 87.8854 113.712 90.3359 113.761C91.0225 113.773 91.7979 113.873 92.5418 114.084C91.7411 113.326 90.9741 112.518 90.1903 111.755C88.8993 110.497 87.6084 109.24 86.3178 107.985L82.5959 104.358L78.8725 100.731C77.7192 99.6044 76.3669 98.5669 76.4894 96.7916C76.5889 95.3755 77.3092 93.9658 77.8014 92.6005C77.8711 92.404 77.9345 92.2095 77.9937 92.0172C78.9868 88.7159 79.5507 85.2939 80.5584 82.0055ZM128.662 223.651C127.892 222.881 126.697 224.076 127.467 224.847L127.875 225.252C128.555 225.931 129.229 226.631 129.7 227.47L129.769 227.597C130.276 228.56 131.736 227.707 131.228 226.744C130.601 225.554 129.603 224.593 128.662 223.651ZM95.6765 223.434C93.2256 222.966 90.8634 222.966 88.4125 223.434C87.3454 223.638 87.7973 225.268 88.8619 225.064C91.0054 224.655 93.0834 224.655 95.2272 225.064C96.2901 225.267 96.7453 223.638 95.6765 223.434ZM62.5768 206.39C61.5222 206.123 61.0722 207.753 62.1277 208.021L62.6473 208.151C64.4138 208.588 66.0962 208.913 67.9312 208.508C68.9788 208.276 68.5552 206.685 67.5234 206.869L67.4818 206.877C65.7839 207.253 64.2196 206.807 62.5768 206.39ZM121.361 195.408C120.581 194.649 119.384 195.843 120.166 196.603C121.141 197.552 122.291 198.274 123.684 198.312C124.756 198.342 124.771 196.702 123.732 196.624L123.684 196.621C122.75 196.595 122.006 196.036 121.361 195.408ZM21.8909 190.892C22.864 190.406 22.009 188.947 21.038 189.433L15.1969 192.354C14.2238 192.841 15.0788 194.3 16.0498 193.814L21.8909 190.892ZM137.313 191.265C136.225 191.234 136.226 192.925 137.313 192.956C138.335 192.984 139.383 193.372 140.294 193.814C141.268 194.287 142.126 192.83 141.147 192.354C139.956 191.776 138.649 191.302 137.313 191.265ZM82.736 183.101C83.6305 182.493 82.7858 181.027 81.8829 181.641C80.6508 182.479 79.5345 183.468 78.322 184.331L77.9888 184.563C77.0943 185.171 77.9389 186.637 78.8419 186.023C80.1858 185.109 81.3921 184.015 82.736 183.101ZM145.588 170.813C144.5 170.812 144.499 172.503 145.588 172.504L145.794 172.503C146.692 172.498 147.638 172.473 148.473 172.832L148.569 172.875C149.547 173.336 150.406 171.879 149.422 171.415C148.198 170.839 146.918 170.813 145.588 170.813ZM51.7261 169.605L51.8681 169.552C52.8843 169.187 52.4461 167.552 51.4187 167.922C49.8706 168.478 48.6661 169.529 47.3231 170.441C46.4282 171.049 47.2728 172.515 48.176 171.901C49.3332 171.115 50.4098 170.12 51.7261 169.605ZM115.121 165.206L115.349 165.084C116.316 164.586 115.462 163.127 114.496 163.624C113.729 164.019 113.042 164.544 112.29 164.963L112.062 165.085C111.094 165.583 111.948 167.042 112.915 166.545C113.682 166.15 114.368 165.625 115.121 165.206ZM89.4088 148.829L89.2348 148.661C88.4569 147.899 87.2609 149.094 88.0396 149.857C89.9846 151.761 92.2839 153.207 94.6035 154.604L95.0254 154.858C95.9603 155.419 96.8111 153.958 95.8785 153.398L95.2594 153.026C93.197 151.782 91.1588 150.497 89.4088 148.829ZM42.638 147.251C43.2934 146.399 41.8682 145.566 41.2021 146.368L41.1786 146.397C40.4964 147.283 39.6869 148.085 38.8409 148.817L38.6818 148.954C38.1782 149.382 37.2615 150.301 36.5539 150.361C35.4782 150.453 35.4685 152.144 36.5539 152.052C37.6487 151.959 38.5908 151.188 39.4179 150.527C40.6217 149.566 41.6985 148.471 42.638 147.251ZM132.556 141.091C133.342 140.353 132.182 139.179 131.389 139.871L131.361 139.896C129.894 141.275 127.782 141.645 125.893 142.113C124.838 142.375 125.285 144.005 126.342 143.743L127.203 143.531C129.134 143.049 131.071 142.487 132.556 141.091ZM99.0839 130.426C98.0292 130.158 97.5792 131.788 98.6347 132.057C100.427 132.512 102.125 133.101 103.787 133.919C104.76 134.398 105.617 132.94 104.64 132.459C102.852 131.579 101.014 130.917 99.0839 130.426ZM116.349 94.7837C116.324 94.7076 116.404 94.621 116.482 94.6482C118.379 95.3557 117.371 97.8408 116.781 99.3284L116.675 99.6004C115.751 101.984 114.461 104.305 113.054 106.44C111.581 108.674 109.946 110.813 108.176 112.82C107.407 113.692 106.611 114.539 105.787 115.36L105.477 115.667C104.645 116.485 103.572 117.922 102.281 117.764C100.891 117.597 100.115 116.111 101.13 114.982C101.846 114.184 102.839 113.547 103.639 112.82C104.434 112.102 105.203 111.36 105.953 110.597C107.487 109.031 108.94 107.376 110.269 105.632C111.554 103.946 112.784 102.213 113.903 100.412L114.125 100.051C114.976 98.6493 116.941 96.5886 116.349 94.7837ZM49.1495 112.494C48.2491 111.879 47.4027 113.343 48.2964 113.954C49.9396 115.078 51.3854 116.439 53.164 117.363C54.1163 117.858 54.9633 116.44 54.0509 115.921L54.0171 115.903C52.2397 114.979 50.7919 113.617 49.1495 112.494Z" fill="black"/>
<path fill-rule="evenodd" clip-rule="evenodd" d="M106.354 96.2651C101.665 96.2921 97.6792 94.9611 94.6382 92.759C90.8435 91.4053 86.2661 89.3174 83.4858 87.1255C82.4014 87.4023 81.1038 86.2498 80.2739 85.6416C75.1137 81.7868 71.0633 76.1443 69.8631 70.4924C68.0103 72.832 65.3737 72.9293 62.848 71.7664C57.5536 68.7627 57.7516 62.4381 59.6576 57.7127C55.6505 48.7183 52.8734 24.9739 58.9902 15.3911C60.2413 13.9573 62.0775 13.0996 63.3994 11.6292C64.5757 10.3451 65.6946 9.03153 67.0632 8.01536C71.2391 4.8358 78.4315 3.14289 82.9349 2.34673C101.734 -1.71923 116.178 5.58885 133.206 11.7533C132.226 14.205 130.871 16.4408 129.317 18.5256C133.544 20.1042 131.603 23.6534 128.323 25.4526L126.37 24.5032C129.414 35.3975 136.419 62.4888 133.397 71.1886C130.986 84.7615 120.409 96.363 106.354 96.2651Z" fill="white"/>
<path fill-rule="evenodd" clip-rule="evenodd" d="M82.7602 1.1335C91.2209 -0.42246 99.9063 -0.502139 108.264 1.68512C112.527 2.80084 116.653 4.36716 120.784 5.88846C125.1 7.47824 129.419 9.05808 133.737 10.6426C134.124 10.7848 134.499 11.2289 134.323 11.6748C133.438 13.9174 132.306 16.0121 130.914 17.958C132.028 18.5126 132.79 19.7218 132.817 21.0884C132.863 23.4762 130.632 25.0497 128.85 26.2068C128.541 26.4078 128.239 26.4051 127.991 26.2846C129.895 33.5475 131.72 40.8346 133.265 48.1805L133.368 48.6755C134.906 56.1048 135.905 63.6868 134.451 71.2156C133.204 77.6679 130.312 83.8968 125.787 88.704C121.369 93.3978 115.441 96.3531 109.027 97.0119C103.077 97.6229 95.9892 96.2451 92.0159 91.4016C91.7879 91.1235 92.0723 90.6974 92.412 90.8881L92.7864 91.0966C95.5994 92.6509 98.522 93.9726 101.709 94.5398C105 95.1252 108.35 95.0595 111.612 94.3159C124.146 91.4589 131.647 79.2615 132.79 67.0587C133.514 59.3271 131.841 51.6418 130.102 44.1549C128.285 36.3261 126.298 28.5372 123.99 20.8385C123.903 20.5507 123.919 20.2932 124.005 20.0753C121.459 18.6779 118.261 21.7774 116.338 23.0936C115.046 23.9781 113.635 24.6215 112.054 24.7217C110.396 24.8265 108.773 24.3019 107.268 23.6573C104.19 22.3383 101.303 20.8282 98.045 19.9513C94.7966 19.0767 91.4427 18.646 88.0785 18.6768C82.0033 18.7324 75.93 20.3247 72.2127 25.4563C70.6582 27.6024 69.6773 30.0695 70.4649 32.7086C70.8863 34.1207 71.6776 35.405 72.5469 36.5857L72.834 36.9727C73.5745 37.9792 74.1828 38.9654 73.4209 40.2029C72.9957 40.894 72.3572 41.4532 71.8876 42.1171C71.4701 42.7074 71.1008 43.3433 70.8109 44.0063C70.2443 45.3019 70.0012 46.6951 69.9509 48.101C69.8503 50.9029 70.5794 53.6023 70.7368 56.3834C70.7562 56.7269 70.3022 56.7182 70.1921 56.4572C68.9235 53.4467 68.0932 49.8559 68.483 46.5774C68.6685 45.0193 69.1362 43.5192 69.8987 42.1458C70.3369 41.3566 70.8714 40.6264 71.454 39.9383L71.6608 39.7006C71.9364 39.381 72.1417 39.0807 71.9159 38.5949C71.7257 38.1862 71.3002 37.7903 71.0286 37.4226C69.3481 35.1469 68.0721 32.4404 68.4802 29.5489C68.8812 26.7079 70.7554 24.0682 72.7345 22.0747C77.1496 17.6277 84.0014 16.635 89.9898 16.8799C93.5062 17.0237 97.0168 17.6436 100.365 18.7265C102.017 19.2608 103.632 19.9116 105.2 20.6566L105.55 20.8246C107.006 21.5305 108.451 22.2971 110.031 22.6853C113.675 23.5804 115.8 20.8899 118.621 19.1877L118.76 19.1052C120.939 17.8424 123.899 17.3216 125.868 19.2135C126.028 19.3677 126.113 19.537 126.139 19.7046C126.243 19.8306 126.326 19.9881 126.377 20.1802C126.784 21.7068 127.188 23.2346 127.591 24.7629C127.66 24.671 127.748 24.586 127.861 24.5131L128.349 24.1983C129.262 23.6054 130.233 22.9136 130.68 21.9257C131.036 21.1371 130.718 19.4034 129.557 19.5093L129.504 19.5153C128.578 19.6412 127.918 18.6914 128.581 17.928C130.146 16.1227 131.447 14.1182 132.406 11.9335L125.887 9.52059C123.714 8.71664 121.54 7.91372 119.365 7.11387L118.175 6.67621C114.204 5.21924 110.21 3.79634 106.081 2.85833C97.8498 0.988726 89.2664 1.42453 81.057 3.18466L80.564 3.29124C77.1104 4.0446 73.6114 4.95893 70.4417 6.54322C68.8643 7.33156 67.366 8.29151 66.0786 9.50255C64.7528 10.7495 63.7227 12.2717 62.2986 13.4191L61.5207 14.0422C60.312 15.0165 59.2316 15.9723 58.5505 17.4814C57.8535 19.0254 57.5171 20.7301 57.2457 22.3922C56.5721 26.5112 56.3059 30.6961 56.3313 34.8684C56.3763 42.2198 57.5463 49.4139 58.9848 56.5891C59.9974 54.7425 61.5821 53.1808 63.7574 52.8953C66.1024 52.5876 68.4071 53.7694 69.5182 55.8595C69.5607 55.9396 69.4597 56.0178 69.3938 55.9557C67.4854 54.1564 64.3667 54.0548 62.4236 55.8684C60.5902 57.5795 60.0249 60.3648 60.0057 62.7709C59.986 65.2475 60.5985 68.1897 62.745 69.7188C63.6327 70.3511 64.7174 70.729 65.8092 70.74C66.9458 70.7514 68.0229 70.2463 69.087 69.8997C69.894 69.637 70.3878 70.5581 70.0933 71.2094C70.0362 71.336 69.9716 71.4538 69.9036 71.5675L70.4807 72.5167C72.2135 75.3598 73.9787 78.1493 76.2906 80.5928C77.6222 82.0001 79.0341 83.3278 80.5841 84.4917L80.8064 84.6568C81.3737 85.0734 82.2154 85.9279 82.9542 85.9564C83.5783 85.9807 83.9209 85.6626 84.3574 86.3072C84.5421 86.5801 84.5271 86.9979 84.3574 87.2721C83.2442 89.0722 80.9668 87.3193 79.7907 86.4164L79.6495 86.3083C77.9921 85.0436 76.4209 83.6447 75.0401 82.0796C72.5624 79.2716 70.3462 75.9363 69.33 72.2846C67.6119 73.8984 64.3759 73.4796 62.4118 72.5477C57.1895 70.0703 56.4933 62.7408 58.3728 57.9064C58.4224 57.7783 58.4759 57.6511 58.5306 57.5239C55.272 49.3522 54.2746 40.262 54.5512 31.5291C54.6796 27.4701 54.9538 23.2112 55.9111 19.2523C56.3275 17.5303 57.0477 15.8883 58.2033 14.5321C59.4756 13.0387 61.3111 12.1905 62.6364 10.7421L62.9282 10.4218C64.0416 9.1959 65.1031 7.99658 66.4485 6.99403C67.9189 5.8986 69.5421 5.04221 71.228 4.33017C74.8994 2.78013 78.8514 1.85251 82.7602 1.1335ZM62.3324 61.3877C63.8748 60.6514 65.5891 60.3236 67.2913 60.5546L67.465 60.5793C68.9366 60.7978 71.427 61.4092 71.7125 63.0549C71.8096 63.6145 71.4733 64.2268 70.834 64.2086C70.032 64.1858 69.6139 63.7798 69.0084 63.3265C68.4245 62.8894 67.786 62.5189 67.1053 62.2551C65.621 61.6798 64.0624 61.4932 62.4927 61.7682C62.2768 61.8058 62.1053 61.4964 62.3324 61.3877Z" fill="black"/>
<path fill-rule="evenodd" clip-rule="evenodd" d="M110.195 78.8183C108.774 78.2387 107.507 77.2719 106.581 76.0369C106.259 75.6075 106.175 75.1541 106.243 74.7395C106.319 74.2732 106.595 73.8506 106.971 73.5671C107.348 73.2828 107.82 73.1425 108.276 73.214C108.672 73.2761 109.067 73.4933 109.379 73.9436L109.444 74.0336C109.995 74.779 110.713 75.3907 111.531 75.7849C112.319 76.1648 113.2 76.3422 114.113 76.2391C115.85 76.0427 117.048 75.1027 118.32 73.8262C118.478 73.6651 118.636 73.4989 118.795 73.33C118.895 73.1769 119.034 73.0785 119.188 73.0269C119.36 72.9695 119.554 72.9728 119.731 73.0348C119.902 73.0946 120.056 73.2079 120.158 73.3587C120.256 73.502 120.311 73.6791 120.293 73.8828C120.177 75.2056 119.485 76.3862 118.503 77.3133C117.413 78.3428 115.967 79.0551 114.606 79.3049C113.106 79.5801 111.578 79.383 110.195 78.8183ZM115.313 58.4104C116.909 59.3805 119.339 61.6427 117.623 64.0477C115.603 66.1682 112.694 63.7369 111.261 62.6372C109.932 61.785 108.439 63.9768 109.672 64.972C120.029 72.643 124.232 58.6641 116.12 57.2698C115.227 57.1162 114.895 58.1103 115.313 58.4104ZM96.7531 49.4871C96.9294 47.2983 100.262 46.8012 100.593 48.9671C100.89 50.9073 100.541 52.6897 99.6669 54.4365C98.8322 56.1053 96.7342 55.3267 96.5755 53.8071C96.3629 51.7701 96.6435 50.8486 96.7531 49.4871ZM122.119 48.5181C122.583 47.9094 123.254 47.4938 124.058 47.7287C126.569 48.4627 125.829 52.0288 124.947 53.7646C124.468 54.7072 122.919 54.9463 122.219 54.1163C121.078 52.7628 120.532 50.0599 121.982 48.7267C122.021 48.6578 122.065 48.5882 122.119 48.5181ZM99.6316 39.9095L100.028 39.8401C101.255 39.6278 102.781 39.4238 103.649 40.4107C104.109 40.934 104.268 41.9066 103.649 42.4075C102.56 43.2888 101.357 42.9473 100.053 43.0219C98.9777 43.0836 97.9446 43.2616 96.9092 43.5577C94.6376 44.2071 92.7867 45.3928 90.8466 46.6947C90.592 46.8655 90.3322 46.5398 90.4537 46.3016C91.5736 44.1072 93.7439 42.3046 95.9179 41.2058C97.0782 40.6193 98.3479 40.1327 99.6316 39.9095ZM119.83 38.9265L120.133 38.9887C123.437 39.6795 127.729 41.0595 129.294 44.3057C129.353 44.7647 129.29 44.8631 129.239 44.9274L129.222 44.9488C129.18 45.0037 129.146 45.0793 128.947 45.1418C128.892 45.1286 128.836 45.1147 128.78 45.0999C128.063 44.9119 127.495 44.6529 126.946 44.3842L126.351 44.0907C125.66 43.7517 124.963 43.4252 124.224 43.1841C122.647 42.6696 121.026 42.3073 119.379 42.1138C119.022 42.0719 118.679 41.9514 118.407 41.7448C118.15 41.5488 117.953 41.2774 117.864 40.9166C117.748 40.4497 117.781 40.0963 118.031 39.6751C118.22 39.3588 118.489 39.1395 118.798 39.0136C119.114 38.8853 119.473 38.855 119.83 38.9265Z" fill="black"/>
<path fill-rule="evenodd" clip-rule="evenodd" d="M69.1748 56.5898C70.668 56.5898 71.2796 60.0676 71.2796 60.0676C75.0773 66.6185 78.7329 73.1511 85.2554 77.6582C92.4959 80.5607 99.6176 85.5042 107.868 86.0462C111.587 85.6555 112.678 82.25 117.271 83.4483C120.202 84.1606 123.492 85.5654 126.201 83.5363C128.491 82.0387 130.103 79.77 132.078 77.9359C132.179 77.6049 132.835 81.0973 132.636 82.2778L132.483 82.9481C131.26 88.3528 130.023 94.7129 124.55 97.6839C122.883 98.5627 120.544 99.4107 118.693 98.9154C108.916 100.475 98.3113 99.3339 89.7457 94.4549C86.7302 93.6712 84.4871 91.2655 82.1125 89.4483C76.3045 84.3591 69.6485 77.9123 69.0282 70.1809C68.408 62.4496 68.6842 56.5898 69.1748 56.5898ZM98.7155 71.8558C102.043 66.5099 108.655 67.3781 113.799 69.8137C116.641 67.8834 120.391 68.2387 123.474 69.5986L123.473 69.6003C126.314 71.1548 128.465 73.7072 130.442 76.1483C130.923 76.7969 131.115 77.6683 130.438 77.9881C127.251 80.6161 120.629 79.0737 117.623 77.1198C115.455 76.945 115.931 73.8655 113.428 76.0208C111.758 77.5912 109.66 78.5649 107.381 79.142C102.286 80.8919 97.5952 80.6012 93.1579 77.8734C92.5871 77.8181 90.2489 76.495 91.0797 76.0242C91.9834 76.2683 96.99 73.3936 98.7155 71.8558Z" fill="white"/>
<path fill-rule="evenodd" clip-rule="evenodd" d="M68.397 62.3381C68.431 62.0569 68.8673 62.0429 68.8771 62.3381C69.0793 68.5234 71.0927 75.3046 74.4979 80.6005C82.6813 93.9679 99.3844 100.664 115.461 98.3635C127.209 98.2042 128.464 91.5445 131.384 82.2453C132.9 81.0004 133.645 81.4464 133.174 82.9057C129.554 94.127 128.314 100.563 113.992 100.441C90.9939 103.725 66.0536 84.9135 68.397 62.3381ZM100.888 67.3258C104.64 65.65 109.105 65.8865 112.239 68.2037L112.46 68.254C113.009 68.3768 113.535 68.4702 114.152 68.4074C122.445 64.0398 127.982 71.6568 132.234 77.3599C132.555 77.3708 132.816 77.6225 132.729 77.9175L132.865 78.0631C132.33 79.5002 131.362 80.8875 130.039 81.7591C125.7 87.5386 122.46 85.7319 116.807 83.3523C110.994 82.4818 110.759 89.3363 102.65 86.1963L102.344 86.0966C99.6759 85.2151 96.6134 83.8782 94.6738 81.9462C94.6104 81.8829 94.6724 81.7608 94.7694 81.7925C99.2693 83.1496 105.055 87.5809 109.636 84.5954C110.793 83.8182 111.834 82.8745 113.128 82.2892C120.517 79.8157 123.114 89.5841 129.58 79.4426C124.315 80.3604 118.381 79.4478 114.445 75.8615C108.562 82.9501 97.1106 81.8143 89.83 77.4114C88.8342 77.5549 87.3608 76.5695 88.2778 75.6316C89.2809 74.834 90.8678 75.1467 92.1009 74.7141C96.037 73.3133 96.9663 68.8484 100.888 67.3258ZM114.042 70.29C109.883 67.3307 103.664 66.8324 99.6837 70.3234C97.1983 72.8206 95.5859 76.4042 91.5793 77.0646C98.4602 81.0269 108.347 81.0935 113.645 74.7892C113.812 74.2442 114.674 74.4792 114.778 74.9529C118.572 77.6009 123.424 79.0081 128.15 78.1962C128.912 78.0711 129.664 77.8932 130.397 77.6647L129.7 76.7057C125.991 71.6299 121.221 65.7191 114.148 69.8938C113.988 69.9748 113.92 69.7677 113.9 69.6614L113.813 69.7249C113.876 69.8561 114.397 70.288 114.042 70.29ZM131.07 79.1039C131.105 79.135 131.134 79.169 131.158 79.2044C131.274 79.1438 131.395 79.0823 131.519 79.0233L131.485 78.9986C131.352 79.0364 131.213 79.0714 131.07 79.1039ZM68.9325 54.6626L68.9309 54.4597C68.9311 52.4182 69.4795 54.9921 69.7258 55.4985C70.7846 57.4053 71.6698 59.2924 72.7914 61.1514C77.2888 69.2458 77.9853 72.7543 87.0477 77.3654C87.7209 77.942 87.0137 78.9771 86.1774 78.7644C84.9264 78.4462 83.7466 77.6489 82.6568 77.0058C76.4858 73.8218 74.1839 67.3268 71.4152 61.6736C70.6021 59.432 68.7265 57.0406 68.9325 54.6626Z" fill="black"/>
<path fill-rule="evenodd" clip-rule="evenodd" d="M137.766 52.898C135.751 66.5278 121.691 68.0352 119.193 54.5041C119.593 54.3285 119.882 53.9827 119.822 53.3114C119.808 50.3627 120.723 47.2461 123.382 45.6062C126.129 43.9142 129.345 43.7464 132.525 43.7891C138.593 43.6445 138.465 48.7184 137.766 52.898ZM116.991 46.9703C115.087 46.89 112.678 46.9572 110.972 48.1179C110.503 46.8545 109.284 45.5054 108.053 44.7841C112.629 44.9181 117.34 44.4675 121.951 44.1177C120.847 44.8703 119.82 46.001 119.153 47.3082C118.534 46.9779 117.647 47.0088 116.991 46.9703ZM108.597 54.343C103.317 72.5268 90.1354 64.6011 88.6984 62.2708C86.1063 58.4145 85.6187 49.0403 87.8765 46.5339C91.1085 44.2673 95.6839 44.8507 99.5019 44.7951C106.516 44.8898 111.498 46.9889 108.597 54.343ZM144.001 45.9797C142.566 45.792 141.033 45.7542 139.699 46.3861C139.288 44.6397 137.999 43.1797 136.543 42.5372C136.367 42.3162 136.393 42.1974 135.791 42.2306C132.095 41.1193 127.959 41.7073 124.407 42.8469C118.798 43.3194 112.913 43.692 107.256 44.3432C101.957 41.9626 85.9654 41.6136 84.9716 47.4813C83.7215 47.2943 81.5926 46.31 80.5422 47.6451C72.837 46.3384 64.8754 48.1545 57.1369 48.9633C55.189 49.3222 54.1857 53.1895 56.3968 53.1367C57.6399 52.7991 56.3586 50.7285 58.0324 50.5728C65.4989 49.757 72.8019 48.5996 80.3448 48.4641C80.0824 49.7671 85.3337 49.8518 85.4112 49.091C85.4224 49.0967 85.4343 49.1005 85.4457 49.1056C84.1481 53.9434 85.3193 60.9057 87.6644 63.9056C90.95 67.8337 99.199 68.9607 102.857 66.4333C107.575 64.1007 112.483 52.3914 111.105 48.5013C113.607 47.7079 116.081 47.9461 118.677 48.3502C118.083 50.0302 117.057 54.1659 118.533 54.5246C118.262 62.7355 125.732 67.8589 132.618 64.4906C138.578 61.6917 140.662 52.8323 139.933 47.4549C140.675 48.8891 146.905 47.3277 144.001 45.9797Z" fill="black"/>
</svg>
