<svg width="170" height="253" viewBox="0 0 170 253" fill="none" xmlns="http://www.w3.org/2000/svg">
<path fill-rule="evenodd" clip-rule="evenodd" d="M131.479 143.121C129.644 142.467 127.876 141.711 126.265 140.599C121.621 137.141 118.592 131.937 115.731 127.005C111.7 119.834 108.829 112.192 106.844 104.22C105.991 100.794 105.702 96.8232 103.764 93.7865C99.3713 87.428 86.4906 88.2519 79.6508 89.368C75.0705 90.1788 74.1238 95.3065 73.0835 99.1009C72.2173 102.254 71.6503 105.442 71.1743 108.673C70.0419 109.418 68.7635 110.023 67.5449 110.55C54.2649 114.624 51.9308 122.176 46.8584 133.842C38.2913 150.798 15.0445 157.438 11.533 177.505C9.27055 190.754 15.7043 203.218 22.3375 214.231C28.5149 226.262 37.1391 232.036 50.8734 229.194C63.7554 226.303 76.1357 221.467 88.791 217.73C94.9206 216.222 101.04 212.301 107.488 213.668C120.774 216.653 134.424 218.056 148.039 217.669C167.155 218.442 167.153 200.088 165.19 185.874C163.816 163.754 152.663 149.55 131.479 143.121Z" fill="white"/>
<path fill-rule="evenodd" clip-rule="evenodd" d="M132.757 175.129C134.354 176.186 135.698 177.788 136.776 179.474C132.274 179.006 127.779 178.465 123.294 177.85C123.881 177.475 124.474 177.108 125.08 176.761C127.292 175.515 130.288 173.496 132.757 175.129ZM57.9503 188.444C57.1253 188.121 56.8061 186.862 56.4845 186.141C55.4764 183.879 54.5563 181.578 53.5991 179.294C57.2337 178.258 60.7682 177.108 64.5334 176.555C68.5819 175.962 72.6903 175.818 76.7762 175.951C85.0524 176.221 93.2517 177.575 101.388 179.025C109.516 180.475 117.643 181.867 125.827 182.96C133.845 184.03 141.888 184.814 149.947 185.501C151.513 185.635 154.123 186.198 155.382 184.966C156.379 183.99 156.412 182.189 155.164 181.396C154.387 180.901 153.261 180.894 152.374 180.779C151.256 180.636 150.133 180.54 149.008 180.465C148.55 180.435 148.092 180.407 147.633 180.379C151.313 178.991 155.156 178.234 159.145 178.445C159.371 179.816 160.387 181.227 160.944 182.358C161.915 184.332 162.672 186.33 163.169 188.476C164.208 192.963 164.254 197.619 163.96 202.195C163.691 206.01 163.112 210.231 160.12 212.933C157.855 214.978 154.659 215.736 151.695 215.974C148.249 216.251 144.75 215.955 141.333 215.493C136.541 214.845 131.726 213.988 127.028 212.839C117.928 210.614 109.206 207.073 101.159 202.273C97.2349 199.932 93.4904 197.299 89.5122 195.047C85.4586 192.752 81.1454 190.972 76.6162 189.867C71.5477 188.63 66.2491 188.102 61.0397 188.407C60.1357 188.46 58.8296 188.788 57.9503 188.444ZM52.0767 186.147C52.6093 187.876 53.0168 189.85 54.1536 191.303C55.2797 192.743 56.9785 193.251 58.7383 193.379C60.8603 193.533 63.0072 193.434 65.1338 193.513C69.4955 193.675 73.7973 194.384 77.9669 195.684C81.8525 196.896 85.4595 198.785 88.934 200.882C92.1469 202.821 95.2657 204.903 98.4797 206.836C97.6243 207.228 96.7786 207.652 95.9282 208.022C94.1447 208.796 92.3502 209.544 90.5476 210.273C86.9931 211.71 83.4235 213.112 79.8174 214.415C72.546 217.042 65.155 219.337 57.675 221.292C54.1076 222.225 50.4894 223.314 46.7831 223.469C43.4967 223.606 40.4525 222.677 37.8019 220.722C32.3043 216.668 27.9305 210.815 24.3947 205.043C22.2941 201.613 20.4609 198.01 18.9446 194.284C18.1777 192.4 17.4822 190.486 16.8562 188.551C16.5626 187.642 16.2841 186.728 16.0205 185.81C15.9045 185.406 15.7934 185.001 15.6833 184.596C21.3049 182.88 26.9933 181.331 32.8152 180.471C35.9236 180.011 39.0733 179.779 42.2157 179.813C43.7755 179.829 45.3345 179.914 46.886 180.075C47.7212 180.161 48.5529 180.273 49.3811 180.411C49.7233 180.468 50.0751 180.552 50.4279 180.614C50.9669 182.462 51.5103 184.308 52.0767 186.147ZM168.283 178.801C168.586 178.188 168.713 177.585 168.822 176.918C168.905 176.409 169.125 175.692 168.932 175.031C168.717 174.29 168.13 173.628 167.708 172.997C167.243 172.299 166.778 171.601 166.313 170.902C165.384 169.505 164.458 168.106 163.532 166.707C159.753 160.991 156 155.26 152.241 149.532C148.905 144.449 145.625 139.32 142.188 134.305C139.248 130.017 136.045 125.799 132.021 122.464C126.934 118.247 120.877 116.261 114.549 114.711C113.858 113.993 112.935 113.601 111.949 113.681C110.555 112.099 109.447 110.994 108.945 108.983C108.704 108.02 108.779 105.313 107.842 104.743C106.728 104.066 106.146 104.962 105.839 105.972C104.811 109.352 105.99 113.895 108.705 117.281C107.561 121.235 106.045 126.855 103.34 130.023C100.443 133.416 96.4365 134.472 92.114 134.541C83.8707 134.674 75.6362 131.609 69.3486 126.298C67.4375 124.683 65.6626 122.88 64.0568 120.963C62.8524 119.524 61.4276 117.304 60.4853 115.626C60.4853 114.972 59.7135 114.288 67.5712 113.759C75.429 113.231 76.0249 102.468 76.1996 101.003C76.3416 99.8133 76.9454 97.9669 76.1075 96.997C75.7519 96.5851 75.0222 96.5188 74.5714 96.7986C73.7212 97.3268 73.4419 98.6773 73.1747 99.5943C72.8003 100.879 71.5765 108.853 69.2574 109.776C68.1717 110.208 66.9265 110.216 65.778 110.296C64.3598 110.395 62.9386 110.468 61.526 110.633C61.005 110.694 60.4367 110.862 59.9227 110.867C59.5883 110.87 59.2433 110.708 58.92 110.594C57.8291 110.208 56.7389 110.497 55.615 110.648C45.6778 111.984 35.4459 115.033 26.9698 120.52C19.499 125.356 14.2357 132.31 10.7626 140.441C7.21905 148.739 5.18793 157.712 3.48574 166.546C2.91553 169.506 2.41758 172.479 1.98976 175.463C1.57631 178.346 1.05912 181.293 0.935322 184.206C0.886308 185.358 1.16159 186.428 1.58518 187.481C2.06222 188.666 3.18976 189.133 4.27124 189.686C6.64525 190.901 9.14962 191.843 11.7298 192.51C13.3061 195.379 14.6326 198.359 15.6987 201.453C15.3032 202.237 15.295 203.407 15.2189 204.169C15.0303 206.067 14.9495 207.974 14.9326 209.88C14.8986 213.7 15.1283 217.516 15.3083 221.331C15.4908 225.199 16.0976 240.463 16.1964 242.327C16.2733 243.775 16.1698 245.8 16.9323 247.085C18.104 249.061 20.9958 248.995 22.3353 247.393C55.615 254.55 118.171 252.394 143.366 248.793C146.644 248.325 145.615 248.844 146.448 248.016C147.074 247.393 147.606 246.328 147.779 245.472C148.011 244.329 147.637 243.295 146.983 242.37C146.296 241.397 146.17 239.823 145.915 238.667C145.311 235.934 145.011 223.931 144.728 222.601C144.641 222.187 144.555 221.749 144.453 221.31C149.074 221.748 153.89 221.748 158.286 220.202C160.78 219.325 163.105 217.948 164.895 215.981C167.062 213.6 168.268 210.602 168.888 207.473C169.688 203.438 169.858 199.259 169.7 195.157C169.482 190.309 168.678 185.394 166.683 180.943C167.34 180.333 167.89 179.597 168.283 178.801Z" fill="black"/>
<path fill-rule="evenodd" clip-rule="evenodd" d="M53.9522 21.6854C55.0478 20.5092 56.4491 19.633 57.981 19.353C56.5808 20.0527 55.212 20.7821 53.9522 21.6854ZM51.8061 31.8268C51.6124 30.9305 51.4822 30.0255 51.4412 29.1207C51.6861 29.4931 52.0772 29.7419 52.5164 29.8704C52.2327 30.5059 51.9914 31.1607 51.8061 31.8268ZM125.12 45.8802C123.856 40.614 117.955 30.4846 116.561 28.535C115.046 23.7075 123.306 19.8361 118.814 16.0612C116.78 14.3579 114.092 13.7551 111.571 13.1511C94.1141 8.95705 75.3582 11.0722 59.1675 18.7846C56.7048 18.2662 54.1389 19.2794 52.348 21.059C43.9343 29.5189 55.4006 44.783 57.9079 54.3204C62.2098 64.9549 53.3484 66.7438 54.2986 75.7416C55.037 80.3901 59.7434 81.6186 63.715 82.3212C64.3516 82.4702 65.2026 82.4926 65.4079 83.1657C66.0515 87.0949 68.2575 90.8394 71.2193 93.3807C70.9603 94.1483 71.158 95.0802 72.0713 95.7544C80.3462 101.906 90.7801 104.985 101.101 104.431C113.401 103.772 119.761 96.7194 121.296 94.9035C129.782 83.4384 128.768 68.3112 127.037 54.6476C125.831 45.1293 127.361 55.2093 125.12 45.8802Z" fill="white"/>
<path fill-rule="evenodd" clip-rule="evenodd" d="M87.195 2.05933C87.5816 0.850402 88.6759 0.123357 89.9288 0.273416C91.0379 0.404453 92.2252 1.50559 92.09 2.72085C92.0647 2.95545 92.0309 3.17526 91.9907 3.38238L91.996 3.38423L92.0013 3.38449L91.9738 3.46481C91.8914 3.85158 91.7773 4.19819 91.6083 4.52578C91.3928 5.15349 91.1858 5.78332 90.9809 6.41526C91.2766 6.40257 91.5788 6.41948 91.8851 6.47655C92.202 5.66496 92.521 4.85549 92.8379 4.04179C93.1781 3.17314 93.4168 2.05721 94.0886 1.38512C94.9485 0.527036 96.44 0.349502 97.4879 0.962418C98.595 1.60915 98.99 2.75889 98.7492 3.99107C98.6268 4.61958 98.207 5.05698 97.6876 5.33179L97.6316 5.36062L97.2323 6.30747C97.3548 6.25463 97.4816 6.20602 97.6189 6.16586C97.8344 6.10246 98.0457 6.0623 98.2527 6.04539C98.8231 5.01189 99.4506 4.00798 100.099 3.02308C100.845 1.89025 102.303 1.40837 103.526 2.12484C104.62 2.76524 105.208 4.44758 104.424 5.55295C103.828 6.39201 103.264 7.24798 102.708 8.1124C102.803 8.12931 102.898 8.15044 102.989 8.17792C103.032 8.12085 103.076 8.06379 103.122 8.00672C103.729 7.25432 104.434 6.69001 105.159 6.06441C105.837 5.47686 106.15 4.55326 107.041 4.10731C108.163 3.54723 109.515 3.81565 110.183 4.93158C111.615 7.32195 109.211 9.0677 107.673 10.5155C109.01 9.68062 110.403 8.91764 111.831 8.25823C112.634 7.88837 113.449 7.53118 114.277 7.22261C115.505 6.7661 116.498 6.91214 117.506 7.76156C117.956 8.14199 118.179 8.9728 117.972 9.52633C117.571 10.5873 116.937 11.2319 115.826 11.5384C115.044 11.754 114.244 11.8998 113.462 12.1259C112.152 12.5021 110.88 12.9608 109.646 13.5335C109.735 13.5885 109.82 13.6477 109.898 13.7153C110.819 13.4173 111.757 13.1594 112.699 12.9396C114.262 12.5731 115.852 12.3254 117.45 12.1705L117.981 12.1211C119.896 11.9372 122.199 11.5979 123.375 13.4321C123.761 14.0365 123.803 15.0341 123.375 15.6322C122.555 16.782 121.739 17.0102 120.383 17.0314C121.718 17.173 123.051 17.3484 124.378 17.5534C125.293 17.6929 126.207 17.851 127.118 18.0265L127.572 18.1156C128.682 18.3375 129.92 18.4664 130.872 19.109C132.951 20.5123 131.975 23.2451 129.672 23.5367C128.559 23.6762 127.323 23.2049 126.231 22.9851C125.17 22.7717 124.106 22.5836 123.037 22.4187C122.483 22.332 121.929 22.256 121.374 22.1862C122.504 22.349 123.626 22.5793 124.718 22.9048L125.022 22.9964C127.133 23.6402 129.983 24.6655 130.642 26.9226C131.041 28.2942 129.949 29.4905 128.627 29.5708C127.397 29.6448 126.372 28.9114 125.329 28.3703C124.568 27.9772 123.795 27.6834 122.975 27.4319C122.128 27.172 121.264 26.9564 120.394 26.781C121.129 27.1864 121.846 27.632 122.533 28.1304L122.849 28.364C124.677 29.7264 127.464 31.8357 126.82 34.3896C126.617 35.1948 125.72 35.9641 124.858 35.8817C122.614 35.6725 121.376 33.2821 119.684 32.0013C119.242 31.6674 118.758 31.3377 118.251 31.0164C120.816 34.0768 122.857 37.6148 124.41 41.269C127.822 49.3083 128.869 56.7534 128.895 65.3975L128.895 65.6652C128.899 70.4333 128.791 75.288 128.327 80.0349C127.896 84.4204 127.106 88.7489 125.117 92.7204C121.786 99.3798 115.294 104.566 108.134 106.54C100.167 108.738 91.2619 107.02 84.7358 101.948C83.071 100.654 85.2788 97.8456 86.9795 99.0395C93.7717 103.805 102.556 105.315 110.352 102.089C116.536 99.532 121.515 94.0305 123.626 87.6964C124.969 83.6667 125.36 79.37 125.84 75.1705L125.872 74.8906C126.379 70.4988 126.672 66.0773 126.668 61.6559C126.662 53.4449 125.483 46.6859 121.872 39.238C120.174 35.7295 117.97 32.4855 115.338 29.6384C114.539 29.8012 113.69 29.5729 112.883 29.4863C112.471 29.4419 112.059 29.3996 111.647 29.3616C112.068 29.6338 112.481 29.9168 112.886 30.2065L113.418 30.5903C115.084 31.7833 117.196 33.1421 116.768 35.4484C116.652 36.0719 116.031 36.6447 115.429 36.7863C113.246 37.3062 111.746 35.1843 110.272 33.9246C108.989 32.8298 107.648 31.8492 106.281 30.8664C105.97 30.6445 105.658 30.4225 105.343 30.2027C105.639 30.5477 105.926 30.898 106.207 31.2516L106.622 31.7776C107.877 33.3491 109.687 35.3917 108.569 37.4288C108.252 38.0037 107.576 38.3862 106.921 38.3735C104.669 38.327 103.773 35.7697 102.717 34.155C101.808 32.7706 100.822 31.4666 99.8013 30.1626C99.5203 29.8054 99.2372 29.4482 98.9499 29.091C94.2196 29.3362 89.5062 29.9618 84.8752 30.9615C81.6935 31.6484 78.5647 32.5384 75.459 33.5125L75.2009 33.5946C73.5202 34.136 71.7884 34.8288 70.5766 36.017C70.4037 36.8356 70.5365 37.6989 70.7019 38.5164L70.8309 39.1422C71.3623 41.7589 71.7244 44.3271 71.4534 47.0135C71.1724 49.7843 70.3379 52.2762 69.3196 54.8504C68.8379 56.0636 68.3393 55.8438 68.1682 57.1457C68.0371 58.1373 68.1182 59.161 68.2077 60.161L68.2826 61.0088C68.4704 63.2294 68.5647 65.6505 67.1097 67.4828C66.8837 67.7639 66.3999 67.6519 66.2393 67.3708C66.1759 67.2588 66.1083 67.151 66.0344 67.0474C65.333 66.0308 64.2576 65.4517 63.0281 65.2277C62.8717 65.2002 62.933 64.991 63.064 64.9741C64.1034 64.8515 65.0879 65.1115 65.9245 65.6483C65.5278 64.2759 62.4563 64.9433 61.4466 65.21L61.4119 65.2192C60.1527 65.5574 58.9612 66.1069 57.9112 66.8847C55.7985 68.4487 54.5773 70.8877 54.6386 73.5147C54.6999 76.0974 56.033 78.4836 58.3231 79.72C59.4281 80.316 60.6851 80.6034 61.9358 80.5908C63.2414 80.5781 64.4034 80.0053 65.7112 80.0856C66.4675 80.1321 67.0464 80.9437 66.609 81.6517C66.3175 82.1252 65.9372 82.4971 65.4978 82.7825C66.5689 85.2531 67.9358 87.6097 69.5119 89.7845C70.3844 90.9913 71.3731 92.1051 72.4612 93.1217C73.3104 93.9164 75.1506 94.8358 75.0471 96.1609C75.0112 96.6386 74.764 96.9302 74.3288 97.1078C72.9757 97.6612 71.3304 95.7557 70.4254 94.8371L70.3527 94.7639C69.2245 93.6395 68.1957 92.3968 67.2999 91.078C65.7112 88.7362 64.7245 86.0964 64.3168 83.3235C62.1471 83.9766 59.2738 83.3637 57.5034 82.5627C51.9386 80.0476 50.1196 72.551 53.502 67.5589C54.1569 66.593 54.9766 65.7666 55.9104 65.0988C55.7055 64.9868 55.5133 64.843 55.3421 64.6613C54.3955 63.6553 53.7262 62.3426 53.062 61.1327L52.9823 60.988C52.3926 59.9228 51.8363 58.8409 51.3149 57.7423L51.121 57.3295C49.9569 54.825 48.9365 53.7302 48.1062 51.0968C47.3076 48.5564 46.6781 45.9674 46.2703 43.3339L46.162 42.6369C45.9261 41.1088 45.7031 39.4748 45.8752 37.9234C44.69 38.3101 43.4985 38.549 42.3259 37.9677C41.5527 37.5852 41.1259 36.4693 41.39 35.6683C41.5823 35.0786 41.9034 34.6157 42.3112 34.2522C42.0682 34.1296 41.84 33.9732 41.6393 33.7999L41.464 33.648C40.7541 33.0306 40.7034 31.8576 41.1344 31.0841C41.1766 31.0101 41.2189 30.934 41.259 30.86C41.6689 30.1266 42.5161 29.6469 43.3527 29.6596C43.4879 29.6617 43.6231 29.6617 43.7604 29.6596C43.3696 29.5729 42.9872 29.4398 42.6238 29.2157C40.9844 28.2076 41.1914 25.4748 43.1752 24.9929C44.0076 24.7922 44.9266 24.8746 45.8435 25.0902C45.8097 25.0711 45.7759 25.0521 45.7421 25.031C45.0492 24.6062 44.4682 23.7756 44.5337 22.9238C44.6055 21.9812 44.9097 21.3091 45.7421 20.8146C46.4647 20.3876 47.4872 20.3475 48.2055 20.8146C48.8288 21.2225 49.4393 21.6726 50.0266 22.1566C49.4372 21.4317 48.9259 20.6434 48.7189 19.8064C48.4633 18.7645 48.89 17.6295 49.8281 17.08C50.5759 16.6425 51.3661 16.6911 52.0717 17.0293C52.0337 16.4819 52.1668 15.9239 52.5302 15.4293C53.2738 14.4151 54.6259 13.8315 55.8027 14.5713C55.9569 14.6685 56.164 14.8355 56.3647 15.0405C55.9738 13.7956 56.3266 12.4895 57.6597 11.9273C58.4731 11.5828 59.5738 11.7561 60.2795 12.35C59.8316 9.92578 63.4083 8.1441 64.7985 10.6486C65.114 11.216 65.4261 11.8134 65.7053 12.4245L65.8083 12.6543L65.8189 12.6501L65.7479 12.4821L65.6752 12.314C65.2886 11.4158 64.7964 10.4816 64.6612 9.50731C64.4626 8.0659 65.1048 6.69846 66.6724 6.48711C67.4816 6.37721 68.3816 6.74496 68.9245 7.38768C68.6309 5.15138 71.1281 3.5261 72.9259 5.19576C73.7773 5.98621 74.2316 7.1423 74.7724 8.15678C75.0788 8.72954 75.3914 9.30019 75.6978 9.87506C75.7759 9.78206 75.8604 9.68907 75.9492 9.59819C75.495 8.23709 75.1421 6.84218 74.8442 5.43882C74.5612 4.11576 75.2224 2.74199 76.5872 2.36811C77.8273 2.02551 79.3802 2.79081 79.6569 4.11175C79.8513 5.04148 80.0816 5.96106 80.3351 6.876C80.5083 6.83373 80.6795 6.80414 80.8485 6.783C80.8626 6.61111 80.8785 6.43827 80.8964 6.26637L80.9629 5.655C81.1106 4.25809 81.2596 2.66345 81.9893 1.476C83.2337 -0.552964 86.4238 0.28821 86.4576 2.68704C86.4766 3.92766 85.9717 5.15772 85.7964 6.38567C85.7203 6.92038 85.6759 7.46144 85.6506 8.0025C85.9907 6.20602 86.4576 4.43279 86.9985 2.68704C87.0619 2.4778 87.1295 2.26856 87.195 2.05933ZM59.671 71.3358C62.4703 70.9025 65.0287 72.4644 66.6872 74.6519C66.9893 75.0513 66.7907 75.6156 66.5182 75.9517C66.3217 76.199 66.0576 76.2285 65.7597 76.2666C65.4175 76.311 64.9844 76.0341 64.8344 75.7361C63.7675 73.6057 61.8639 72.2594 59.671 71.4309C59.6309 71.4161 59.6182 71.3442 59.671 71.3358ZM63.5515 33.165L63.6363 33.0739C64.2027 32.4862 63.3076 31.5883 62.7399 32.1774C62.1422 32.7975 61.745 33.5507 61.3631 34.3141C60.999 35.042 62.0921 35.6849 62.4576 34.9543L62.6241 34.6222C62.8853 34.1059 63.1638 33.5957 63.5515 33.165ZM55.6901 31.9586C56.4929 31.8234 56.1526 30.6011 55.3531 30.736C54.3175 30.9105 53.2859 31.109 52.25 31.2838C51.4474 31.4191 51.7878 32.6413 52.5872 32.5067C53.6228 32.3319 54.6545 32.1334 55.6901 31.9586ZM103.514 23.6143C102.739 23.3554 102.406 24.5798 103.177 24.8372C104.243 25.1929 105.3 25.5575 106.312 26.0514C107.042 26.4081 107.685 25.3148 106.951 24.9564C105.841 24.4143 104.684 24.0049 103.514 23.6143ZM55.5076 21.9708C54.7502 21.6678 54.4212 22.8938 55.1706 23.1937L57.9086 24.2891C58.666 24.5922 58.995 23.3664 58.2456 23.0665L55.5076 21.9708ZM113.075 18.9934L112.975 18.9304C112.288 18.4853 111.652 19.5826 112.335 20.0254C112.736 20.2852 113.223 20.4614 113.59 20.7708L113.667 20.8393C114.26 21.3994 115.158 20.5045 114.564 19.9425C114.129 19.5318 113.578 19.3031 113.075 18.9934Z" fill="black"/>
<path fill-rule="evenodd" clip-rule="evenodd" d="M92.0453 84.8545C94.6325 81.847 98.9899 81.6375 102.599 82.3895C104.916 82.8722 107.171 83.6762 109.524 83.9742C110.623 84.1135 111.733 84.1551 112.84 84.1346C113.927 84.1145 115.016 83.8954 116.099 83.9361C116.266 83.9423 116.329 84.161 116.185 84.25C114.698 85.1632 112.696 85.4562 110.94 85.6348C110.946 85.7647 110.954 85.8916 110.972 85.9991C111.02 86.2859 111.063 86.5708 111.099 86.8595C111.178 87.5107 111.268 88.1598 111.356 88.8097C111.532 90.0887 111.587 91.4082 111.895 92.6651L111.949 92.8739C112.02 93.1381 112.037 93.3763 112.013 93.5911L112.084 93.5587L112.31 93.4494L112.458 93.3796C112.997 93.1294 113.512 92.9471 114.146 93.0079C114.629 93.054 115.035 93.3835 115.038 93.8994C115.05 96.2148 111.931 96.9593 110.147 97.4025L109.623 97.5315C107.352 98.0856 105.034 98.5714 102.698 98.6876C98.9496 98.8738 94.7375 97.8394 92.2856 94.7979C89.9977 91.9601 89.5784 87.7221 92.0453 84.8545ZM109.067 94.5825C108.674 91.0966 104.392 90.9049 103.16 93.1155C102.614 90.0342 94.5271 92.8492 95.1594 93.4617C97.556 95.7836 101.193 95.9926 104.32 95.5632C105.912 95.3444 107.505 94.9883 109.067 94.5825ZM104.315 85.4459L103.239 85.2909L102.815 85.2325C100.146 84.8749 97.1443 84.6903 94.9501 86.402C94.1489 87.0267 93.6981 87.8417 93.5297 88.7171C95.606 88.4093 97.6898 88.1744 99.7799 87.9788L100.35 87.9264C101.658 87.8085 102.965 87.6842 104.271 87.5538L105.2 87.4598L106.128 87.3634C106.455 87.3292 108.656 87.2165 109.07 87.2922C109.114 86.9202 109.172 86.1152 109.265 85.7531C107.701 85.8062 106.144 85.69 104.589 85.4833L104.315 85.4459ZM109.271 69.865C110.866 70.8351 113.297 73.0972 111.581 75.5022C109.56 77.6228 106.652 75.1914 105.219 74.0918C103.89 73.2395 102.396 75.4314 103.629 76.4265C113.987 84.0975 118.19 70.1186 110.078 68.7244C109.184 68.5707 108.853 69.5649 109.271 69.865ZM112.126 73.9518L112.202 73.9101L112.228 73.8944C112.273 73.8653 112.245 73.8685 112.143 73.9038L112.066 73.9313V73.9854C112.086 73.9734 112.107 73.9643 112.126 73.9518ZM91.6939 65.3329L91.6936 65.2853C91.6966 63.9376 92.4812 60.8604 94.4207 60.8604C95.6323 60.8604 96.3679 62.9546 96.4952 65.1135L96.4997 65.2015C96.5559 66.5437 96.1877 69.4775 94.4207 69.4775C92.6349 69.4775 91.7122 66.6988 91.6939 65.3329ZM120.248 64.9102L120.248 64.8626C120.245 63.5149 119.46 60.4377 117.521 60.4377C116.34 60.4377 115.611 62.4285 115.457 64.529L115.446 64.6908C115.37 65.9876 115.714 69.0548 117.521 69.0548C119.307 69.0548 120.229 66.2761 120.248 64.9102ZM92.8005 51.6714C94.3833 51.4307 96.4793 51.8881 97.2172 53.4981C97.5459 54.2155 97.1566 55.0087 96.3278 55.0484C94.3247 55.1443 92.5283 54.6984 90.7702 56.0014C90.0135 56.5622 89.3774 57.3387 88.8436 58.1133L88.6416 58.4081L88.4743 58.6509C88.1118 59.1841 87.7685 59.7633 87.8221 60.4065C87.838 60.597 87.6434 60.7777 87.4586 60.7701C86.3063 60.7227 86.1823 59.2775 86.3338 58.4095C86.6156 56.7986 87.395 55.2864 88.4752 54.0684C89.6097 52.7893 91.1074 51.9291 92.8005 51.6714ZM114.601 53.6265C115.692 52.9246 117.088 52.655 118.367 52.7583C120.888 52.9614 125.117 55.1053 124.561 58.1858C124.389 59.1358 123.068 59.6371 122.29 59.11C121.453 58.5434 121.249 57.6627 120.627 56.9221C120.13 56.3305 119.5 55.9026 118.825 55.538C118.161 55.1784 117.392 54.9605 116.637 54.881L116.512 54.8691C116.058 54.8304 113.765 54.8407 114.102 55.6969C114.168 55.8645 113.918 55.9972 113.804 55.8704C113.101 55.0927 113.897 54.0792 114.601 53.6265Z" fill="black"/>
</svg>
