<svg width="168" height="246" viewBox="0 0 168 246" fill="none" xmlns="http://www.w3.org/2000/svg">
<path fill-rule="evenodd" clip-rule="evenodd" d="M11.3376 241.278C38.9386 245.472 67.0403 245.683 94.8707 244.16C105.885 243.335 116.933 243.187 127.938 244.242C134.441 244.725 162.954 246.906 165.284 241.079C163.817 210.052 160.848 178.76 151.738 148.92C147.992 138.324 144.774 129.53 137.462 120.762C135.157 118.368 130.188 113.347 127.34 111.709C124.873 110.291 123.842 110.797 122.425 108.401C121.017 105.754 119.979 101.334 117.98 99.4666C115.945 97.5651 112.929 98.2454 109.19 98.8579C109.877 89.5731 105.593 87.2085 99.6911 85.4428C89.3169 81.4819 79.0712 83.4718 76.4601 96.1057C71.6187 96.1057 68.8992 98.1899 65.9592 100.193C64.7574 101.011 65.5934 103.097 64.1579 103.74C61.5019 104.686 56.8084 104.455 54.2512 105.619C42.6222 110.913 32.2647 118.591 25.4627 129.803C10.2134 153.742 -0.26172 204.169 1.55095 232.542C0.756758 233.788 1.85499 235.575 2.13414 236.914C2.4865 238.08 3.62757 238.855 4.81843 238.723C6.48024 240.51 9.05059 240.908 11.3376 241.278Z" fill="white"/>
<path fill-rule="evenodd" clip-rule="evenodd" d="M125.583 111.007C125.413 110.912 125.562 110.67 125.733 110.75C133.918 114.592 140.198 121.331 144.616 129.118C149.191 137.182 151.799 146.337 154.047 155.285L154.128 155.608C156.525 165.18 158.564 174.851 160.399 184.546C162.257 194.363 163.749 204.241 164.949 214.16C165.543 219.065 166.072 223.978 166.485 228.901C166.691 231.361 166.878 233.823 167.047 236.286C167.114 237.271 167.177 238.256 167.232 239.242L167.271 239.982C167.304 240.652 167.384 241.325 167.218 241.987C167.075 242.557 166.773 243.074 166.508 243.597C165.983 244.633 164.543 244.462 163.977 243.597L163.812 243.346C163.437 242.765 163.125 242.226 163.008 241.504C162.894 240.804 162.889 240.072 162.838 239.365C162.744 238.066 162.664 236.765 162.573 235.465C162.381 232.728 162.166 229.993 161.928 227.261C161.456 221.866 160.951 216.476 160.33 211.096C159.227 201.534 157.842 191.998 156.21 182.513C154.616 173.246 152.6 164.074 150.497 154.914L150.279 153.966C146.597 137.973 140.922 119.554 125.583 111.007ZM38.3951 173.634C38.4553 173.474 38.7143 173.438 38.7581 173.634C39.3095 176.118 39.364 178.676 39.4483 181.219C39.5313 183.727 39.5279 186.247 39.4914 188.757C39.3566 197.98 39.1035 207.197 38.8846 216.419C38.7752 221.032 38.6725 225.646 38.5937 230.26C38.5639 231.99 38.5389 233.721 38.518 235.451L38.4926 237.734C38.4799 238.743 38.4534 239.739 38.3304 240.747C38.2493 241.41 38.0765 242.043 37.7106 242.611C37.4509 243.015 37.0808 243.219 36.7201 243.493L36.6526 243.546C36.1924 243.909 35.7078 243.912 35.2521 243.546L35.1197 243.441C34.6844 243.1 34.3082 242.834 34.0303 242.296C33.6437 241.547 33.5818 240.733 33.5161 239.908C33.4164 238.657 33.4825 237.388 33.4954 236.133C33.5212 233.616 33.556 231.099 33.6002 228.582C33.7622 219.352 34.0825 210.12 34.6662 200.907C34.9412 196.567 35.3141 192.213 35.8143 187.891L35.9095 187.081C36.0612 185.809 36.1996 184.515 36.3555 183.217C34.028 181.579 31.9821 179.592 30.2374 177.337C30.109 177.172 30.3204 176.939 30.4755 177.1C32.2582 178.946 34.3022 180.418 36.5651 181.576C36.9359 178.858 37.4457 176.154 38.3951 173.634ZM77.2794 91.3587C77.3113 91.334 77.3612 91.3232 77.3916 91.3587C77.8919 91.9422 77.7904 92.8343 77.8066 93.5737L77.8084 93.6426C77.8444 94.7236 77.8511 95.8013 77.8475 96.883L77.8363 100.326C77.8348 100.8 77.7964 101.292 77.8207 101.769L77.8334 101.953C78.0962 102.222 78.2183 102.611 78.1292 103.002C78.1131 103.503 77.8511 103.922 77.4689 104.184L78.288 105.347L79.1079 106.509C80.7979 108.907 82.5064 111.283 84.287 113.615C86.1026 115.992 88.0395 118.28 90.0664 120.48C91.0566 121.555 92.0637 122.615 93.0943 123.651C93.5131 124.072 93.9423 124.483 94.3668 124.898L94.7891 125.316C95.0386 125.565 95.3525 125.812 95.5182 126.129C95.6156 126.315 95.6377 126.775 95.6726 126.851C95.9853 127.539 95.4518 128.635 94.5653 128.292L94.6056 128.265C94.767 128.153 94.6635 128.151 94.2951 128.26C94.0627 128.26 93.8448 128.206 93.6413 128.1L93.5806 128.067C93.294 127.921 93.0381 127.639 92.8051 127.414L92.7474 127.358C92.2148 126.859 91.7071 126.33 91.1967 125.808C90.1313 124.719 89.0899 123.607 88.0817 122.466C86.0705 120.188 84.1638 117.817 82.3581 115.374C80.5188 112.885 78.8092 110.268 77.339 107.543C76.781 106.509 76.2696 105.456 75.7792 104.39C74.8247 104.083 74.6031 103.068 74.6696 101.923C74.3175 101.103 74.0001 100.266 73.8125 99.4101C73.787 99.2928 73.9376 99.1823 74.0278 99.2848C74.3331 99.6318 74.6158 100.001 74.8875 100.38C75.0514 99.5781 75.2589 98.8399 75.3565 98.3692L75.7796 96.292C73.3951 96.1678 70.7821 97.1478 69.1382 98.8635C69.0499 99.3103 68.7062 99.6301 68.3711 100.048C67.9883 100.525 67.6543 101.061 67.4052 101.621C66.8527 102.863 67.1646 104.693 66.0924 105.604C65.9806 105.699 65.8558 105.765 65.7269 105.806C66.2357 108.302 66.0048 111.051 65.9937 113.583L65.9933 113.806C65.9958 116.64 65.9012 119.475 65.7918 122.307L65.6804 125.109C65.5361 128.846 65.4424 132.585 65.8055 136.301C67.4629 134.833 69.1767 133.431 70.9494 132.096C72.1151 131.218 73.3041 130.371 74.5147 129.556L75.4983 128.899C76.677 128.108 77.8843 127.294 79.1749 126.728C80.8629 125.988 82.4682 126.242 84.0979 127.002C85.7208 127.758 87.2954 128.637 88.8873 129.456C90.5065 130.29 92.129 131.117 93.7505 131.945C94.8246 132.494 96.3985 132.99 97.1863 134.001C97.2366 133.777 97.2951 133.554 97.3636 133.332C97.2854 132.993 97.3156 132.627 97.5056 132.278C100.153 127.412 102.602 122.43 105.034 117.454C106.265 114.936 107.436 112.388 108.669 109.871L109.868 107.42C110.068 107.012 110.269 106.604 110.471 106.196C110.774 105.586 111.089 104.982 111.395 104.374C111.524 104.117 111.686 103.861 111.812 103.602L111.872 103.472C111.874 103.465 112.165 102.551 111.941 102.638L111.921 102.647C111.807 102.712 111.715 102.568 111.789 102.476C112.106 102.084 112.548 102.431 112.729 102.795C113.228 103.795 112.314 105.364 111.963 106.321L111.943 106.375C110.852 109.465 109.617 112.496 108.351 115.518C105.924 121.31 103.316 127.014 100.714 132.727L100.683 132.825C101.238 132.4 101.831 132.014 102.338 131.638C103.618 130.69 104.935 129.788 106.249 128.889C108.661 127.241 111.138 125.702 113.655 124.223L114.16 123.928C115.417 123.195 116.663 122.601 118.156 122.821C119.543 123.025 120.832 123.771 122.085 124.376L122.215 124.438L126.086 126.279C125.672 124.628 125.224 122.985 124.757 121.348C123.845 118.156 122.841 114.99 121.753 111.852C120.737 108.92 119.639 106.021 118.477 103.144L118.127 102.281C117.653 101.096 117.182 99.8048 115.828 99.4401C114.475 99.0755 112.923 99.6162 111.686 98.8445C111.573 98.7744 111.587 98.589 111.724 98.5548L112.487 98.3623C113.92 98.0058 115.599 97.6471 116.954 97.9938C118.429 98.3717 119.649 99.6096 120.364 100.897C121.159 102.328 121.72 103.93 122.324 105.457L122.42 105.697C123.112 107.425 123.779 109.163 124.416 110.912C125.691 114.407 126.851 117.945 127.902 121.515C128.408 123.235 128.888 124.964 129.35 126.697C129.483 127.195 129.701 127.799 129.881 128.43C130.087 128.63 130.282 128.854 130.464 129.11C130.768 129.534 130.55 130.031 130.173 130.285C130.158 130.718 130.062 131.126 129.832 131.476C128.933 132.841 126.556 132.489 126.653 130.654C126.667 130.373 126.777 130.105 126.943 129.879L126.938 129.842L126.919 129.775C126.506 129.577 126.092 129.356 125.655 129.141L121.592 127.132C120.416 126.55 119.111 125.651 117.803 125.43C116.583 125.223 115.296 126.132 114.247 126.681L114.179 126.716C111.645 128.016 109.13 129.358 106.624 130.711C105.401 131.372 104.194 132.061 102.976 132.729C101.957 133.289 100.858 134.091 99.7125 134.407C99.2234 134.787 98.6424 134.736 98.1755 134.449C98.3889 135.771 98.3758 137.127 98.4413 138.479C98.5293 140.286 98.5428 142.098 98.5719 143.907L98.5837 144.586C98.6606 148.586 98.7018 152.587 98.717 156.588C98.771 170.834 98.6137 185.085 98.5769 199.332C98.5583 206.49 98.4165 213.654 98.2306 220.809C98.1518 223.841 97.987 226.87 97.8091 229.897L97.7111 231.548C97.5039 235.032 97.3815 238.555 96.7368 241.992C96.6527 242.44 95.8942 242.452 95.8198 241.992C95.2265 238.309 95.1934 234.545 95.0794 230.819L95.0553 230.074C94.9182 226.073 94.8531 222.075 94.867 218.072C94.9177 203.82 95.2881 189.576 95.591 175.328C95.7434 168.169 95.8458 161.007 96.0825 153.85C96.2008 150.269 96.3347 146.691 96.4936 143.111C96.5646 141.513 96.6328 139.917 96.7389 138.321L96.7868 137.637C96.8198 137.191 96.8464 136.75 96.8787 136.314C95.4372 136.84 94.1189 135.865 92.8222 135.198C91.3277 134.429 89.8338 133.658 88.3387 132.891L86.8423 132.124L83.8477 130.596C82.4994 129.908 81.4606 129.223 80.0225 130.03C74.8416 132.938 70.0807 136.807 65.7662 140.866C64.9389 141.645 63.1906 141.436 62.981 140.131C62.0858 134.556 62.6303 128.901 63.0873 123.31L63.2558 121.234C63.46 118.755 63.6823 116.275 63.9786 113.806C64.1112 112.701 64.2431 111.597 64.3892 110.495L64.5015 109.668C64.6841 108.362 64.8032 107.063 65.1924 105.809C65.0696 105.77 64.9515 105.705 64.8459 105.604C63.6759 104.494 64.24 102.567 64.7739 101.246C65.301 99.9423 66.1049 98.8044 67.1115 97.825C67.331 97.6111 67.6406 97.4735 67.9515 97.4663C70.3923 95.8486 73.0699 95.0413 75.8568 95.9243C75.935 95.5499 76.0148 95.1761 76.0989 94.8032L76.1844 94.4307C76.4012 93.5056 76.4817 91.9775 77.2794 91.3587ZM102.295 237.448C103.052 237.24 103.881 237.459 104.436 238.014C104.991 238.57 105.211 239.399 105.002 240.157C104.898 240.53 104.709 240.853 104.436 241.128C104.181 241.382 103.884 241.563 103.544 241.671L103.465 241.695L103.341 241.746C102.961 241.848 102.582 241.848 102.202 241.746C101.839 241.644 101.524 241.461 101.257 241.195C100.991 240.928 100.808 240.613 100.706 240.249C100.604 239.869 100.604 239.49 100.706 239.11L100.758 238.986C100.862 238.613 101.051 238.289 101.323 238.014C101.598 237.742 101.922 237.553 102.295 237.448ZM147.267 161.945C147.392 161.803 147.593 161.986 147.516 162.138C146.336 164.451 145.021 166.748 143.729 169.003C143.833 169.628 143.935 170.248 144.053 170.852C144.557 173.428 145.173 175.957 145.575 178.557C147.021 187.903 147.771 197.35 148.414 206.779C149.06 216.243 149.143 225.711 149.24 235.193C149.248 236.014 148.616 236.969 147.769 237.124C147.382 237.195 147.092 237.181 146.705 237.124C145.824 236.994 145.273 235.985 145.235 235.193C144.982 229.893 144.642 224.6 144.248 219.309C143.55 209.929 143.124 200.524 142.56 191.133L142.361 187.851C142.148 184.295 141.953 180.737 141.89 177.175C141.847 174.816 141.974 172.457 141.896 170.1C141.824 167.924 141.604 165.558 142.083 163.421C142.101 163.34 142.228 163.32 142.264 163.397C142.763 164.447 143.079 165.588 143.322 166.753C144.607 165.127 145.916 163.498 147.267 161.945ZM63.0988 104.469C63.2792 104.456 63.272 104.727 63.0988 104.748C60.5771 105.04 58.1411 106.067 55.7601 106.939L55.5561 107.014C53.1506 107.887 50.8054 108.902 48.5484 110.112C44.1356 112.479 40.0835 115.53 36.5008 119.022C22.197 132.966 15.6783 153.072 10.9018 171.967C8.24782 182.465 6.36057 193.141 5.13733 203.898C4.53247 209.218 4.10486 214.559 3.85557 219.907C3.72796 222.648 3.64747 225.392 3.61388 228.136C3.59655 229.542 3.59148 230.948 3.59317 232.353C3.59402 232.997 3.70895 233.808 3.53676 234.434C3.37705 235.013 2.92662 235.523 2.59345 236.006C2.1986 236.579 1.48895 236.548 1.0886 236.006L0.940962 235.808C0.513984 235.242 0.0962058 234.7 0.035215 233.959C-0.0300667 233.166 0.0159898 232.347 0.013032 231.55C0.00627148 229.943 0.0261307 228.337 0.0582434 226.731C0.120145 223.652 0.241413 220.575 0.421624 217.501C0.787539 211.263 1.38986 205.038 2.25226 198.849C3.78522 187.848 6.08296 176.952 9.09268 166.261C11.9321 156.176 15.2959 146.12 20.0879 136.778C24.5372 128.104 30.3741 120.035 38.0761 113.973C41.6577 111.154 45.5566 108.805 49.7602 107.036C51.8803 106.143 54.1066 105.415 56.3708 104.999C58.6098 104.589 60.8391 104.646 63.0988 104.469ZM102.729 219.621C103.129 219.618 103.575 219.706 103.918 219.928L104.376 220.282C104.5 220.442 104.624 220.602 104.747 220.762C105.034 221.136 105.072 221.741 105.012 222.186C104.999 222.483 104.91 222.76 104.747 223.016L104.398 223.468C104.063 223.742 103.783 223.937 103.377 224.069C103.164 224.138 102.96 224.152 102.756 224.142L102.688 224.137L102.729 224.143L102.657 224.135C102.591 224.129 102.524 224.122 102.458 224.113C102.412 224.107 102.367 224.104 102.321 224.097C102.278 224.094 102.235 224.092 102.191 224.096C101.675 224.145 101.156 223.852 100.789 223.515C100.459 223.212 100.163 222.569 100.209 222.113L100.228 221.922C100.263 221.601 100.292 221.475 100.428 221.152C100.56 220.838 100.745 220.561 100.996 220.326C101.478 219.878 102.068 219.626 102.729 219.621ZM101.13 196.102C101.816 195.355 102.993 195.3 103.843 195.751C104.05 195.862 104.24 196.039 104.422 196.186C104.882 196.558 105.063 197.229 105.088 197.795C105.114 198.354 104.819 199.017 104.422 199.403L104.326 199.497C104.09 199.727 103.75 199.927 103.419 199.988C102.885 200.086 102.436 200.083 101.938 199.873C101.511 199.693 101.142 199.403 100.892 199.009L100.851 198.943C100.834 198.915 100.818 198.887 100.803 198.858L100.78 198.815C100.304 197.899 100.432 196.862 101.13 196.102ZM101.485 172.458C101.795 172.361 102.103 172.347 102.412 172.417C102.622 172.417 102.818 172.47 102.999 172.575C103.196 172.63 103.367 172.73 103.512 172.874C103.687 172.977 103.826 173.117 103.929 173.291C104.135 173.516 104.273 173.78 104.345 174.082L104.428 174.7L104.345 175.319L104.111 175.874C104.046 175.959 103.982 176.043 103.916 176.126C103.813 176.302 103.673 176.441 103.498 176.545C103.384 176.658 103.254 176.743 103.108 176.802C102.59 177.173 101.9 177.294 101.287 177.125C100.923 177.023 100.607 176.838 100.338 176.572C100.072 176.303 99.8876 175.987 99.7858 175.623L99.7438 175.332C99.6897 174.942 99.6811 174.726 99.7915 174.23C99.8399 174.012 99.9804 173.704 100.054 173.575C100.368 173.022 100.882 172.643 101.485 172.458ZM128.323 155.448C129.211 155.442 130.098 155.444 130.986 155.453L131.651 155.462C132.766 155.48 133.72 155.365 134.596 156.138C135.232 156.7 134.952 157.641 134.348 158.064C133.434 158.705 132.287 158.383 131.235 158.312C130.127 158.238 129.017 158.176 127.907 158.126C125.758 158.03 123.608 157.969 121.456 157.959C119.31 157.95 117.16 157.97 115.013 158.005C112.829 158.04 110.555 158.244 108.383 158.018C108.085 157.987 108.018 157.594 108.312 157.492C110.359 156.784 112.661 156.554 114.806 156.284C117.018 156.004 119.23 155.806 121.456 155.678C123.743 155.547 126.033 155.464 128.323 155.448ZM101.481 148.492L101.555 148.493C101.945 148.494 102.311 148.586 102.652 148.769L102.724 148.81L103.193 149.172C103.481 149.461 103.679 149.802 103.789 150.195L103.872 150.811C103.884 151.13 103.818 151.428 103.673 151.704C103.579 151.992 103.419 152.24 103.193 152.45C102.983 152.676 102.735 152.836 102.448 152.93C102.193 153.064 101.919 153.131 101.628 153.131L101.555 153.13C101.137 153.128 100.747 153.023 100.385 152.813L99.916 152.45C99.6289 152.161 99.4301 151.82 99.3203 151.427L99.2372 150.811C99.2254 150.492 99.2917 150.194 99.4371 149.918C99.5305 149.631 99.6902 149.382 99.916 149.172C100.126 148.946 100.374 148.786 100.662 148.693C100.917 148.559 101.19 148.492 101.481 148.492ZM108.352 94.033C108.851 93.3095 109.756 93.9529 109.626 94.5345C109.66 96.168 109.744 97.7534 110.115 99.3535C110.285 100.086 110.508 100.819 110.852 101.49L110.996 101.773C111.441 102.652 111.787 103.482 111.188 104.446C110.905 104.901 110.395 105.243 109.841 105.219C107.388 105.113 107.05 101.696 106.901 99.7887C106.747 97.8242 107.226 95.6652 108.352 94.033Z" fill="black"/>
<path fill-rule="evenodd" clip-rule="evenodd" d="M133.712 50.3453C132.911 37.1988 128.647 22.2942 116.097 15.8396C88.4293 4.73143 52.0524 32.7049 50.1265 61.282C49.4551 71.0641 54.8842 81.7532 64.8056 84.4728C67.0114 87.3965 70.3473 89.1819 73.6399 90.7316C112.857 111.086 138.189 94.5401 133.712 50.3453Z" fill="white"/>
<path fill-rule="evenodd" clip-rule="evenodd" d="M142.646 42.168C141.26 38.3172 139.796 34.496 138.256 30.7044C136.756 27.0142 135.401 23.2442 133.538 19.7289C122.413 -1.2666 102.182 -1.2666 91.724 1.47672C86.3008 -0.860812 76.1429 -0.201452 70.4958 1.90788C61.3539 5.32266 50.2097 18.7557 46.3995 24.791C37.987 38.1164 32.737 55.8523 38.3251 71.2504C39.0554 73.2629 39.9869 75.1268 41.0356 76.9231C40.375 77.8188 39.6146 78.6671 38.7723 79.5007C36.2692 81.9781 33.7661 84.374 31.6038 87.1683C29.455 89.9452 27.6736 92.8982 26.3474 96.154C23.8469 102.294 23.7265 109.247 27.0324 115.106C29.9086 120.203 35.0037 123.999 40.7441 124.361C41.0388 124.402 41.3339 124.44 41.6303 124.47C42.3909 125.723 43.3184 126.877 44.3768 127.883C47.6198 130.969 55.3501 132.552 59.7592 132.653C59.9853 132.835 60.2134 133.017 60.4416 133.197C63.1395 135.321 65.9705 137.464 69.0677 138.975C71.1655 140 73.9163 140.856 76.105 140.116C77.0979 140.78 78.7268 140.64 79.7113 140.097C81.3296 139.205 82.6458 137.599 83.4465 135.955C85.3881 131.962 84.9212 127.594 84.4226 123.329C83.8733 118.618 83.3451 113.905 82.8085 109.194C82.3881 105.51 81.9486 101.765 80.8289 98.216C80.2501 96.3772 79.4916 94.6103 78.5113 92.9491C78.5367 92.8096 78.5325 92.6701 78.4923 92.5391C78.1712 91.495 77.5078 90.9476 76.7219 90.2375C76.6205 90.1466 76.5191 90.0536 76.4198 89.9585C76.0268 89.5105 75.6064 89.0941 75.1564 88.7411C74.9832 88.5657 74.812 88.3882 74.6409 88.2107C73.2191 86.7206 71.8754 85.1545 70.6817 83.4764C69.524 81.849 68.4782 80.1498 67.4832 78.4188C66.4712 76.6582 65.8015 74.7159 64.7916 72.9681C64.705 72.818 64.4853 72.7884 64.3627 72.9131C64.0501 73.2365 63.8494 73.5958 63.8874 73.9741L63.731 73.9973C63.6719 73.4267 63.1458 72.9617 62.4317 73.0864C61.3627 73.2724 60.4839 73.3422 59.5585 72.9871C59.7212 71.9071 59.8712 70.825 60.0191 69.7408C60.2895 67.7456 60.5409 65.7441 60.7564 63.7426C61.2782 63.8673 61.7958 64.047 62.3029 64.2752C63.0254 64.5986 63.7078 65.034 64.2909 65.5687C64.8655 66.0971 65.2627 66.8093 65.9641 67.1771C66.7712 67.5977 67.7451 66.9023 67.5085 65.9893C67.0289 64.1442 64.3141 63.0874 62.6346 62.7387C62.0578 62.6183 61.4684 62.5675 60.8789 62.5802C61.012 61.2952 61.1303 60.0102 61.2275 58.7231C61.274 58.1144 61.3163 57.5057 61.3564 56.8949C62.662 56.4997 64.0606 56.3813 65.4191 56.5673C65.867 56.9245 66.3148 57.2774 66.7479 57.6346C68.1233 58.7717 69.4923 59.9151 70.8444 61.0796C70.967 61.1832 71.0874 61.2867 71.2099 61.3924C72.0127 62.0835 73.0141 61.3988 72.8789 60.4202C71.7761 52.4016 76.686 46.023 82.4346 41.0817C88.7979 35.6098 100.367 34.9726 107.935 25.4946C111.42 26.2042 119.201 28.3119 122.413 33.4308C126.909 40.604 126.321 47.0312 126.663 55.1682C127.006 63.3115 127.876 71.8056 126.028 79.8348C124.323 87.2384 119.706 93.5642 112.544 96.4723C112.367 96.5442 112.187 96.6139 112.008 96.6816C108.304 98.0786 104.263 98.4738 100.367 97.7383C96.055 96.9225 92.455 94.9485 88.8677 92.5201C88.6606 92.3827 88.3585 92.6659 88.5148 92.873C93.243 99.1417 102.53 101.236 109.897 99.5813C110.242 99.5031 110.584 99.4186 110.924 99.3256C109.276 104.066 109.608 109.27 111.754 113.885C113.045 116.663 115.014 119.066 117.412 120.961C120.055 123.05 123.334 124.736 125.168 127.668C126.847 130.354 126.349 133.372 123.473 134.923C122.749 135.316 122.47 136.587 123.188 137.145C123.463 137.356 123.737 137.572 124.018 137.783C125.628 138.998 130.05 141.281 130.766 141.365C137.125 142.12 141.401 137.449 144.142 131.939C147.359 125.472 146.523 117.59 142.978 111.432C140.134 106.49 134.533 101.621 136.76 95.367C137.554 93.133 139.179 91.2287 140.757 89.5083C142.557 87.5491 144.492 85.7146 146.218 83.6856C147.934 81.6715 149.455 79.4798 150.304 76.952C151.544 73.2576 150.928 69.2631 149.996 65.575C147.999 57.6579 145.407 49.8464 142.646 42.168Z" fill="black"/>
<path fill-rule="evenodd" clip-rule="evenodd" d="M102.665 74.3828C103.847 72.4379 106.366 77.2021 106.634 78.0213C106.871 78.747 107.028 79.4904 107.107 80.2424C108.023 80.4478 108.975 80.4482 109.914 80.2682C111.309 80.0004 112.162 79.2499 113.375 78.6056C114.212 78.1603 115.268 78.6825 115.704 79.4209C116.216 80.2901 115.89 81.1923 115.216 81.8402C113.938 83.069 111.423 83.3512 109.755 83.0249C108.799 82.8381 107.923 82.4795 107.15 81.9584C107.145 82.0556 107.141 82.1529 107.134 82.25L107.119 82.4184C106.991 83.7812 106.616 85.4948 105.558 86.3816C103.823 87.8361 101.681 85.0387 103.367 83.5858L103.419 83.5422C104.468 82.6949 104.696 80.4219 104.64 79.1699C104.603 78.3527 104.454 77.5251 104.196 76.7468L104.143 76.5918C104.065 76.372 103.219 74.2865 102.913 74.5521L102.899 74.5671C102.772 74.7177 102.569 74.5422 102.665 74.3828ZM112.102 63.4084C113.697 64.3785 116.128 66.6406 114.412 69.0456C112.391 71.1662 109.483 68.7348 108.049 67.6352C106.72 66.783 105.227 68.9748 106.46 69.9699C116.817 77.6409 121.02 63.6621 112.908 62.2678C112.015 62.1141 111.684 63.1083 112.102 63.4084ZM95.0659 54.4415C96.625 54.1648 98.2222 54.5526 99.5124 55.4652L99.6102 55.5356C100.853 56.445 102.244 58.0418 101.531 59.6094C101.244 60.2388 100.387 60.3375 99.843 60.0522C98.9373 59.5771 98.7732 58.4081 97.9651 57.7611C97.3023 57.2309 96.4099 56.9092 95.5564 56.9867C93.5513 57.1689 92.3179 59.1474 91.6951 60.8523C91.6154 61.0705 91.2954 61.1552 91.1703 60.921C89.7018 58.1752 92.3012 54.9322 95.0659 54.4415ZM120.04 53.4052C123.027 53.159 126.522 56.2565 125.736 59.4103C125.359 60.9236 123.115 60.8802 122.716 59.4103C122.497 58.6015 122.519 57.8858 121.937 57.2142C121.456 56.6596 120.774 56.3375 120.04 56.3869C119.231 56.4415 118.485 56.8458 117.918 57.4141C117.406 57.9273 117.1 58.6782 116.57 59.1324C116.44 59.244 116.265 59.2512 116.136 59.1324C115.223 58.2906 115.771 56.5381 116.35 55.6593C117.178 54.4017 118.526 53.5301 120.04 53.4052ZM89.3783 48.848C91.2943 47.1513 94.7758 45.5127 97.3594 46.3478C98.8448 46.8277 99.4924 49.2221 97.8341 49.9811C95.9139 50.8599 93.7 50.5023 91.7456 51.4132C90.9248 51.7959 90.1528 52.2742 89.5814 52.9757C89.1312 53.5286 88.6731 54.2561 88.022 54.5748C87.8509 54.6587 87.6191 54.6608 87.482 54.5052C86.0547 52.8901 88.1321 49.9515 89.3783 48.848ZM116.747 46.2635C117.931 45.9311 119.245 45.9378 120.448 46.1467C121.65 46.3555 122.871 46.854 123.853 47.5813L123.967 47.6665C125.038 48.4744 126.317 49.65 126.249 51.0813C126.192 52.2764 124.935 53.0849 123.85 52.4584C122.965 51.9476 122.549 50.9242 121.8 50.2428C121.182 49.6804 120.456 49.237 119.682 48.9263C118.821 48.5812 117.96 48.4195 117.036 48.4041C116.325 48.3923 115.61 48.6256 114.913 48.7002C114.97 48.8181 114.419 48.7632 114.103 48.6586C113.869 48.5588 113.867 48.2627 113.949 48.0706C114.351 47.1189 115.815 46.5248 116.747 46.2635Z" fill="black"/>
</svg>
